<?xml version="1.0" standalone="no"?>
<!DOCTYPE svg PUBLIC "-//W3C//DTD SVG 1.1//EN" "http://www.w3.org/Graphics/SVG/1.1/DTD/svg11.dtd" >
<svg xmlns="http://www.w3.org/2000/svg">
<metadata></metadata>
<defs>
<font id="CenturyModernFSRegular" horiz-adv-x="1105" >
<font-face units-per-em="2048" ascent="1604" descent="-444" />
<missing-glyph horiz-adv-x="497" />
<glyph unicode="&#xfb01;" horiz-adv-x="1204" d="M55 0v61l54 2q77 3 99.5 33t22.5 131v647h-176v68h176v55q0 170 125 279.5t320 109.5q132 0 217.5 -52t85.5 -134q0 -49 -32.5 -82t-80.5 -33q-44 0 -75 27.5t-31 65.5q0 53 49 96q-45 45 -127 45q-46 0 -92 -17.5t-80 -48.5q-47 -44 -67.5 -109.5t-20.5 -172.5v-29h573 v-715q0 -70 9.5 -102.5t34 -45.5t79.5 -16l35 -2v-61h-479v61l8 2q56 4 68 7.5t24 17.5q31 27 31 139v500v49t-3.5 35.5t-4.5 27t-12.5 16.5t-18.5 11.5t-30 4.5t-39 3h-54h-221v-647q0 -101 23 -131t100 -33l43 -2v-61h-533z" />
<glyph unicode="&#xfb02;" horiz-adv-x="1204" d="M53 0v61l56 2q77 3 99.5 33t22.5 131v647h-178v68h178v35q0 167 124.5 282t306.5 115q68 0 149 -22l190 20v-1145q0 -101 23 -131t100 -33l41 -2v-61h-501v61l24 2q80 6 101.5 34t21.5 130v871q-57 32 -57 86q0 44 39 73q-46 46 -119 46q-115 0 -183.5 -88.5 t-68.5 -237.5v-35h240v-68h-240v-647q0 -101 23 -131t100 -33l49 -2v-61h-541z" />
<glyph unicode="&#xfb03;" horiz-adv-x="1802" d="M43 0v61l68 2q77 3 99.5 33t22.5 131v647h-188v68h188v53q0 70 17 120.5t55 96.5q63 78 167 122t224 44q126 0 199 -47q25 -14 76 -74q137 117 332 117q124 0 205 -50.5t81 -127.5q0 -46 -33.5 -79.5t-80.5 -33.5q-48 0 -82.5 31.5t-34.5 75.5q0 66 57 88q-37 27 -100 27 q-131 0 -215 -84q-41 -41 -58 -91.5t-20 -134.5l-2 -53h573v-715q0 -70 9.5 -102.5t34 -45.5t79.5 -16l37 -2v-61h-496v61l23 2q57 5 80.5 17.5t33 44t9.5 102.5v504q0 38 -1 58t-8 38.5t-15.5 26t-31 13t-46 6.5t-68.5 1h-213v-647q0 -70 10 -102.5t35 -45.5t80 -16l35 -2 v-61h-518v61l47 2q78 3 99 31.5t21 132.5v647h-405v-647q0 -101 23 -131t100 -33l47 -2v-61h-551zM424 942h405q4 53 17 121l4 22q-74 39 -74 105q0 51 45 88q-39 29 -112 29q-61 0 -120 -26.5t-100 -72.5q-37 -40 -51 -86t-14 -127v-53z" />
<glyph unicode="&#xfb04;" horiz-adv-x="1804" d="M47 0v61l62 2q77 3 99.5 33t22.5 131v647h-184v68h184v49q0 116 66.5 206t168 135.5t214.5 45.5q100 0 166 -29t117 -96q112 121 282 121q70 0 150 -31l204 29v-1145q0 -70 9.5 -102.5t34 -45.5t79.5 -16l39 -2v-61h-493v61q36 4 53 6.5t36.5 9.5t26.5 16.5t14.5 28 t9 42.5t1.5 63v856q-51 26 -51 82q0 51 51 88q-48 45 -137 45q-84 0 -142 -38q-60 -40 -86 -99.5t-26 -159.5v-59h235v-68h-231v-647q0 -70 9.5 -102.5t34 -45.5t79.5 -16l33 -2v-61h-519v61l50 2q77 3 99.5 33t22.5 131v647h-409v-647q0 -101 23 -131t100 -33l41 -2v-61 h-539zM420 942h411v53q0 58 9 88q-72 21 -72 91q0 30 11.5 50t41.5 40q-39 39 -121 39q-128 0 -204 -83.5t-76 -222.5v-55z" />
<glyph horiz-adv-x="0" />
<glyph horiz-adv-x="2048" />
<glyph unicode=" "  horiz-adv-x="497" />
<glyph unicode="&#x09;" horiz-adv-x="497" />
<glyph unicode="&#xa0;" horiz-adv-x="497" />
<glyph unicode="!" horiz-adv-x="587" d="M170 111q0 51 35.5 85.5t85.5 34.5q51 0 86 -34.5t35 -85.5q0 -49 -36 -85t-85 -36t-85 36t-36 85zM186 1235q0 65 29.5 100t83.5 35t85.5 -37.5t31.5 -101.5q0 -43 -10 -125l-76 -668h-68l-65 668q-2 20 -4.5 50.5t-4.5 50.5t-2 28z" />
<glyph unicode="&#x22;" horiz-adv-x="763" d="M98 1366h209l-59 -549h-90zM457 1366h209l-60 -549h-92z" />
<glyph unicode="#" d="M33 477l28 82h211l88 260h-210l30 84h205l119 354h125l-115 -354h213l115 354h123l-113 -354h219l-24 -84h-228l-84 -260h221l-28 -82h-221l-117 -362h-129l121 362h-213l-117 -362h-129l119 362h-209zM397 559h213l88 260h-213z" />
<glyph unicode="$" d="M111 348q0 60 34.5 103t83.5 43q44 0 76.5 -33.5t32.5 -79.5t-33.5 -79.5t-77.5 -33.5q-10 0 -34 6q20 -88 101.5 -137.5t209.5 -52.5v545q-111 30 -178 69q-73 45 -114.5 118t-41.5 159q0 138 91.5 240.5t242.5 134.5v190h78v-190q69 -4 112.5 -16.5t85.5 -39.5 q55 -34 87 -86t32 -108q0 -53 -34 -91t-81 -38q-44 0 -74 32.5t-30 79.5q0 35 18 64t47 39q5 2 52 8q-51 92 -201 92h-14v-495q7 -2 15.5 -4.5t13.5 -4.5t7 -2q112 -33 149.5 -48.5t76.5 -47.5q56 -44 86.5 -111t30.5 -143q0 -151 -111.5 -270.5t-267.5 -134.5v-160h-78v153 q-161 8 -264 84q-60 44 -94.5 110.5t-34.5 135.5zM299 1040q0 -86 46 -137.5t159 -91.5v471q-94 -17 -149.5 -82.5t-55.5 -159.5zM582 94q107 25 168 97.5t61 175.5q0 95 -54.5 151t-174.5 84v-508z" />
<glyph unicode="%" horiz-adv-x="1374" d="M82 1065q0 130 93 227t218 97q129 0 220.5 -91t91.5 -221q0 -131 -94 -230t-218 -99q-125 0 -218 95t-93 222zM102 0l1098 1366h82l-1098 -1366h-82zM223 1067q0 -138 43.5 -210.5t126.5 -72.5q168 0 168 281q0 136 -43 210.5t-123 74.5q-172 0 -172 -283zM670 299 q0 131 93.5 228.5t217.5 97.5q129 0 220 -94t91 -226q0 -130 -92 -226.5t-217 -96.5q-127 0 -220 94t-93 223zM813 305q0 -287 170 -287q166 0 166 279q0 289 -166 289q-170 0 -170 -281z" />
<glyph unicode="&#x26;" horiz-adv-x="1503" d="M82 356q0 120 84.5 209t286.5 183q-84 139 -84 284q0 155 102.5 257t259.5 102q129 0 214 -75t85 -188q0 -110 -82 -193t-284 -177q73 -131 175 -278.5t162 -207.5q105 125 105 256q0 79 -38 116.5t-122 37.5h-37v66h523v-66h-33q-88 0 -126 -30.5t-63 -116.5 q-35 -116 -70.5 -185.5t-90.5 -130.5q65 -66 106.5 -91.5t85.5 -25.5q66 0 109 50t51 133h61v-15q0 -129 -84.5 -208.5t-216.5 -79.5q-74 0 -128 23t-124 85q-83 -63 -161 -89t-185 -26q-214 0 -347.5 106t-133.5 275zM285 377q0 -141 94 -233.5t239 -92.5q72 0 130 20.5 t116 67.5q-107 115 -220.5 276t-162.5 267q-103 -54 -149.5 -126.5t-46.5 -178.5zM524 1151q0 -156 111 -336q15 9 32.5 18t28.5 15.5t23 13.5q85 53 123.5 113t38.5 139q0 94 -53.5 156.5t-135.5 62.5q-72 0 -120 -52t-48 -130z" />
<glyph unicode="'" horiz-adv-x="434" d="M109 1366h215l-58 -549h-98z" />
<glyph unicode="(" horiz-adv-x="770" d="M82 492q0 264 101.5 484t279.5 341q58 40 115.5 58t144.5 26v-66q-136 -20 -201 -69q-127 -94 -201.5 -296.5t-74.5 -453.5q0 -225 59 -409t170 -306q49 -52 104.5 -80t143.5 -45v-65q-115 19 -188 50.5t-148 96.5q-149 125 -227 314t-78 420z" />
<glyph unicode=")" horiz-adv-x="770" d="M47 -324q134 20 201 70q127 94 201.5 296.5t74.5 453.5q0 225 -59 408.5t-170 305.5q-49 52 -104.5 80t-143.5 45v66q112 -19 185 -51.5t151 -98.5q149 -126 227 -314t78 -417q0 -264 -101.5 -484t-279.5 -341q-59 -40 -117 -59t-143 -25v65z" />
<glyph unicode="*" horiz-adv-x="874" d="M129 956l256 109l-256 104l68 107l215 -172l-33 293h119l-33 -293l209 172l69 -107l-251 -104l251 -109l-69 -110l-209 178l33 -295h-119l33 295l-215 -178z" />
<glyph unicode="+" d="M109 633v98h395v404h98v-404h397v-98h-397v-402h-98v402h-395z" />
<glyph unicode="," horiz-adv-x="522" d="M123 -338q52 61 67 81t33 52q62 104 62 170q0 15 -2 25h-19q-54 0 -90.5 35t-36.5 86q0 46 35 79t82 33q60 0 96.5 -47.5t36.5 -124.5q0 -226 -221 -432z" />
<glyph unicode="-" horiz-adv-x="477" d="M0 428v115h477v-115h-477z" />
<glyph unicode="." horiz-adv-x="522" d="M143 109q0 50 35 85t84 35q51 0 86 -34.5t35 -85.5q0 -49 -35.5 -84t-85.5 -35t-84.5 35t-34.5 84z" />
<glyph unicode="/" horiz-adv-x="858" d="M-41 -354l705 1720h92l-707 -1720h-90z" />
<glyph unicode="0" d="M78 666q0 201 62.5 366t171.5 258.5t241 93.5t241 -93.5t171.5 -258.5t62.5 -366q0 -162 -49.5 -314t-132.5 -241q-120 -129 -297 -129q-80 0 -156 34t-133 95q-83 89 -132.5 241t-49.5 314zM295 705q0 -354 70 -525q25 -61 73.5 -96t110.5 -35q141 0 201.5 152.5 t60.5 509.5q0 315 -62 460.5t-196 145.5q-135 0 -196.5 -145.5t-61.5 -466.5z" />
<glyph unicode="1" d="M240 0v61l86 2q73 2 105.5 17.5t45 56t12.5 129.5v735q0 68 -5 103.5t-24 59t-48.5 31t-85.5 9.5l-54 2v62l35 2q109 6 194 37.5t126 81.5h59v-1123q0 -68 5.5 -104.5t25 -59.5t49 -30t84.5 -9l88 -2l-2 -61h-696z" />
<glyph unicode="2" d="M102 0v78q22 93 129.5 231.5t278.5 292.5q120 109 166 164q88 107 88 256q0 132 -72 209.5t-196 77.5q-104 0 -177 -45q-53 -33 -87.5 -85.5t-34.5 -103.5v-12q39 24 67 24q46 0 76.5 -33.5t30.5 -84.5t-32.5 -84t-82.5 -33q-60 0 -98.5 49t-38.5 125q0 152 119 254 t294 102q166 0 291 -84q148 -98 148 -282q0 -124 -69.5 -215t-270.5 -230q-146 -101 -245.5 -198.5t-166.5 -206.5h303q78 0 131 4t97 15t70 28t46 47t30 67t17 93h64l-19 -420h-856z" />
<glyph unicode="3" d="M88 285q0 79 40.5 132.5t100.5 53.5q51 0 86 -34.5t35 -84.5q0 -49 -34.5 -80.5t-88.5 -31.5q-28 0 -59 16q1 -95 81.5 -151t215.5 -56q152 0 239 87t87 241q0 77 -20.5 140.5t-57.5 100.5q-53 54 -148 64q-55 -12 -102 -12q-74 0 -74 35q0 19 22.5 31t57.5 12q5 0 70 -9 l24 -4q97 22 151 97t54 188q0 140 -71.5 217.5t-200.5 77.5q-116 0 -199 -62q-35 -24 -53.5 -52.5t-32.5 -76.5q33 13 55 13q44 0 76.5 -34t32.5 -81q0 -50 -34.5 -84.5t-84.5 -34.5q-57 0 -94 44t-37 112q0 142 115 236t290 94q185 0 313 -101.5t128 -247.5 q0 -104 -75 -187.5t-210 -129.5q148 -23 231.5 -108t83.5 -212q0 -181 -148.5 -303.5t-367.5 -122.5q-175 0 -286 86.5t-111 221.5z" />
<glyph unicode="4" d="M61 350v99l646 933h120v-933h230v-99h-230v-84q0 -47 1.5 -75t8.5 -51.5t16.5 -35t30.5 -21t43.5 -13t63.5 -7.5l23 -2v-61h-604v61l57 2q45 1 71.5 6.5t46.5 17t29 35.5t13 56.5t4 87.5v84h-570zM162 449h469v679z" />
<glyph unicode="5" d="M104 281q0 80 41.5 133t104.5 53q47 0 79.5 -33t32.5 -80q0 -51 -32.5 -84.5t-81.5 -33.5q-25 0 -66 16q9 -97 87.5 -152t195.5 -55q160 0 245 97t85 280q0 207 -101 305q-83 80 -202 80q-94 0 -181 -62q-27 -20 -42.5 -39.5t-32.5 -56.5q-3 -53 -13.5 -73.5t-34.5 -20.5 q-38 0 -38 59q0 22 14 60l57 710q214 -55 402 -55q178 0 284 53l17 -14q-22 -106 -136 -167.5t-286 -61.5q-106 0 -221 30l-37 -401q121 115 295 115q190 0 326 -126.5t136 -303.5q0 -130 -69 -239.5t-189 -173t-262 -63.5q-164 0 -270.5 86t-106.5 218z" />
<glyph unicode="6" d="M92 625q0 212 74 388.5t203 278t284 101.5q117 0 202 -62t85 -147q0 -60 -40 -103t-95 -43q-49 0 -82 33.5t-33 81.5q0 49 33 81t84 32h8q-68 59 -166 59q-103 0 -181 -63t-110 -172q-45 -152 -51 -416q60 104 137.5 153.5t180.5 49.5q169 0 285 -124t116 -304 q0 -175 -111 -310q-132 -166 -335 -166q-143 0 -254 82.5t-172.5 231t-61.5 338.5zM315 414q0 -175 70.5 -274t196.5 -99q46 0 88 16.5t65 44.5q86 99 86 316q0 182 -62 284.5t-171 102.5q-117 0 -195 -112t-78 -279z" />
<glyph unicode="7" d="M137 915l21 451h891v-94q-239 -330 -326.5 -544t-87.5 -470q0 -26 4 -92t4 -68q0 -54 -32 -89.5t-79 -35.5q-58 0 -93.5 51t-35.5 136q0 138 93 354q63 146 117.5 236.5t260.5 390.5l39 55h-256q-170 0 -249 -15.5t-123 -58.5q-39 -37 -55 -74.5t-33 -132.5h-60z" />
<glyph unicode="8" d="M72 319q0 107 79.5 198.5t233.5 158.5q-126 51 -193 135.5t-67 194.5q0 162 126.5 270t315.5 108q175 0 289.5 -90.5t114.5 -228.5q0 -97 -57.5 -170.5t-188.5 -144.5q125 -60 193 -119q52 -47 83 -114.5t31 -135.5q0 -137 -108 -248q-142 -151 -389 -151q-201 0 -332 95 t-131 242zM231 338q0 -66 26 -126t69 -95q40 -31 101 -50.5t120 -19.5q128 0 212.5 76.5t84.5 191.5q0 75 -37.5 130.5t-118.5 99.5q-47 25 -213 92q-114 -34 -179 -114t-65 -185zM285 1069q0 -66 30.5 -110t104.5 -85q88 -49 233 -96q8 4 11 4l16 11q66 35 106.5 104 t40.5 143q0 122 -75 198.5t-193 76.5t-196 -70t-78 -176z" />
<glyph unicode="9" d="M76 915q0 124 63.5 233.5t170 175t227.5 65.5q100 0 191.5 -49t158.5 -140q133 -178 133 -463q0 -218 -73.5 -392t-204.5 -271t-296 -97q-141 0 -240.5 78t-99.5 187q0 61 40.5 103t97.5 42q51 0 84.5 -33.5t33.5 -83.5q0 -47 -32 -80.5t-78 -33.5q-20 0 -43 10 q66 -123 233 -123q88 0 159.5 36.5t115.5 104.5q37 56 61.5 173.5t24.5 238.5v66q-54 -96 -127 -141.5t-172 -45.5q-182 0 -305 126.5t-123 313.5zM283 934q0 -182 63 -281.5t178 -99.5q123 0 196 101.5t73 271.5q0 188 -65 290.5t-185 102.5t-190 -104t-70 -281z" />
<glyph unicode=":" horiz-adv-x="522" d="M143 109q0 50 35 85t84 35q51 0 86 -34.5t35 -85.5q0 -49 -35.5 -84t-85.5 -35t-84.5 35t-34.5 84zM143 786q0 50 34.5 84.5t84.5 34.5t84.5 -35t34.5 -86q0 -47 -35.5 -81.5t-83.5 -34.5q-50 0 -84.5 34.5t-34.5 83.5z" />
<glyph unicode=";" horiz-adv-x="522" d="M123 -338q81 96 102 133q60 92 60 174q0 11 -2 21h-19q-54 0 -90.5 35t-36.5 86q0 46 35 79t82 33q60 0 96.5 -47.5t36.5 -124.5q0 -226 -221 -432zM135 786q0 50 34.5 84.5t84.5 34.5t84.5 -35t34.5 -86q0 -47 -35.5 -81.5t-83.5 -34.5q-50 0 -84.5 34.5t-34.5 83.5z " />
<glyph unicode="&#x3c;" horiz-adv-x="1024" d="M86 713v14l854 545v-96l-592 -383l592 -398v-258z" />
<glyph unicode="=" d="M109 483v99h890v-99h-890zM109 784v99h890v-99h-890z" />
<glyph unicode="&#x3e;" horiz-adv-x="1024" d="M86 137v99l592 380l-592 398v258l854 -576v-14z" />
<glyph unicode="?" horiz-adv-x="911" d="M68 1077q0 93 67 176q107 131 314 131q164 0 272 -86t108 -217q0 -63 -25.5 -115.5t-82.5 -109.5q-9 -9 -135 -113q-93 -76 -118.5 -135t-25.5 -196h-63q-2 29 -2 63q0 118 24.5 176t110.5 146q71 72 98 126t27 124q0 123 -67.5 196.5t-180.5 73.5q-94 0 -166 -56.5 t-80 -134.5q33 17 56 17q47 0 79.5 -33t32.5 -82q0 -46 -31.5 -77t-78.5 -31q-56 0 -94.5 45.5t-38.5 111.5zM307 104q0 50 34.5 84.5t84.5 34.5t84.5 -35t34.5 -86q0 -47 -35.5 -81.5t-83.5 -34.5q-50 0 -84.5 34.5t-34.5 83.5z" />
<glyph unicode="@" horiz-adv-x="1546" d="M102 678q0 142 57 272.5t153.5 225t228.5 150.5t276 56q169 0 313.5 -77t229 -208.5t84.5 -285.5q0 -135 -67.5 -260.5t-178 -202t-229.5 -76.5q-71 0 -105 30.5t-35 94.5q-89 -71 -139 -96t-108 -25q-98 0 -157.5 68t-59.5 180q0 87 32 186t88 183q63 95 150.5 148 t181.5 53q58 0 97.5 -19t89.5 -71l22 51h164l-221 -576q-25 -64 -25 -90q0 -20 16.5 -33.5t40.5 -13.5q86 0 169.5 66.5t135.5 173.5t52 217q0 102 -43.5 195.5t-116.5 161.5t-173.5 108.5t-209.5 40.5q-126 0 -241 -50.5t-198.5 -136t-133 -203t-49.5 -245.5 q0 -260 196 -441q172 -163 404 -163q243 0 419 153q33 27 57 56t68 90h72q-41 -84 -76 -130t-90 -92q-188 -159 -446 -159q-141 0 -269.5 55.5t-222 148.5t-148.5 221.5t-55 268.5zM516 453q0 -49 22 -76t62 -27q111 0 207 172q40 74 90.5 207t56.5 180q5 43 -21.5 76 t-66.5 33q-44 0 -96.5 -40t-101.5 -112q-64 -93 -108 -213.5t-44 -199.5z" />
<glyph unicode="A" horiz-adv-x="1462" d="M-6 0v61l33 2q93 6 138.5 53t100.5 187l426 1092h74l436 -1067q29 -70 43 -103t33.5 -68.5t30.5 -47.5t34.5 -24.5t43.5 -15.5t59 -6l22 -2v-61h-600v61l27 2q95 7 120 19t25 49q0 20 -7.5 43.5t-35.5 91.5l-77 193h-494l-53 -142q-43 -111 -43 -153q0 -55 37.5 -75 t146.5 -26l39 -2v-61h-559zM461 545h424l-217 534z" />
<glyph unicode="B" horiz-adv-x="1392" d="M66 0v61l26 2q47 3 73 9t46.5 17t29 35t12 55.5t3.5 86.5v834q0 55 -3.5 86.5t-12 55.5t-29 35t-46.5 17t-73 9l-26 2v61h589q138 0 225 -14.5t160 -48.5q89 -43 138 -112.5t49 -154.5q0 -76 -42.5 -143t-111.5 -102q-72 -37 -201 -62q209 -23 318.5 -111t109.5 -233 q0 -83 -40.5 -159t-114.5 -130q-75 -54 -162 -75t-238 -21h-679zM465 223q0 -103 31 -132.5t141 -29.5h63q111 0 167 12.5t100 47.5q104 79 104 246q0 93 -35 166t-100 114q-38 24 -88 31.5t-176 7.5h-207v-463zM465 754h209q90 0 145 13t96 44q86 68 86 209q0 144 -86 221 q-41 35 -95 49.5t-146 14.5h-70q-89 0 -114 -31.5t-25 -140.5v-379z" />
<glyph unicode="C" horiz-adv-x="1374" d="M88 686q0 143 51.5 274.5t137.5 227t205 152.5t249 57q163 0 326 -94q31 -17 49 -17q12 0 21.5 8t43.5 47q0 2 17 19h53l2 -469l-74 -10q-57 229 -161.5 336.5t-268.5 107.5q-201 0 -305 -159.5t-104 -467.5q0 -245 76 -413q110 -244 380 -244q115 0 206.5 53t144.5 150 q49 95 67 278l74 -2q-9 -260 -143.5 -405.5t-366.5 -145.5q-143 0 -269 55t-216.5 150t-142.5 228t-52 284z" />
<glyph unicode="D" horiz-adv-x="1466" d="M66 0v61l26 2q47 3 73 9t46.5 17t29 35t12 55.5t3.5 86.5v834q0 55 -3.5 86.5t-12 55.5t-29 35t-46.5 17t-73 9l-26 2v61h600q172 0 294 -44t220 -142q198 -198 198 -494q0 -286 -184 -479q-99 -107 -227.5 -157t-300.5 -50h-600zM465 258q0 -64 6 -98t28.5 -55.5 t57.5 -27t102 -5.5q122 0 199.5 20t128.5 64q78 69 114 195t36 333q0 222 -42.5 351.5t-136.5 195.5q-95 65 -290 65q-142 0 -179 -45q-15 -18 -19.5 -44t-4.5 -87v-862z" />
<glyph unicode="E" horiz-adv-x="1353" d="M63 0v61l29 2q39 3 62.5 6.5t43.5 12.5t30 21.5t17 36t9 52t2 74.5v834q0 46 -2 74.5t-9 52t-17 36t-30 21.5t-43.5 12.5t-62.5 6.5l-29 2v61h1145l11 -473l-58 -2q-63 232 -167.5 324t-305.5 92q-138 0 -180.5 -32.5t-42.5 -135.5v-385h49q141 0 200.5 50.5t82.5 190.5 h57l4 -544h-59q-34 138 -93 187.5t-188 49.5h-53v-446q0 -104 42.5 -141.5t162.5 -37.5q218 0 354 118t174 341h59l-14 -522h-1180z" />
<glyph unicode="F" horiz-adv-x="1247" d="M63 0v61l29 2q39 3 62.5 6.5t43.5 12.5t30 21.5t17 36t9 52t2 74.5v834q0 46 -2 74.5t-9 52t-17 36t-30 21.5t-43.5 12.5t-62.5 6.5l-29 2v61h1145l9 -479l-62 -4q-17 113 -55.5 187t-110.5 132q-120 96 -303 96q-65 0 -118.5 -13.5t-73.5 -35.5q-17 -17 -23 -43t-6 -88 v-362h51q140 0 221 75q32 31 47 69.5t19 105.5h61v-576h-59q-20 128 -94.5 196t-192.5 68h-53v-428q0 -68 5 -104t24.5 -59t49 -30.5t85.5 -9.5l49 -2v-61h-615z" />
<glyph unicode="G" horiz-adv-x="1443" d="M88 664q0 197 88 366t238 268t325 99q73 0 130 -16t135 -56q52 -29 69 -29q9 0 18.5 9.5t26.5 35.5l15 17h67l4 -471l-80 -8q-18 100 -45 175t-71 139t-111.5 98t-157.5 34q-89 0 -166.5 -35.5t-123.5 -97.5q-119 -158 -119 -508q0 -159 23 -268.5t75 -198.5 q51 -85 130.5 -130.5t174.5 -45.5q71 0 134 26.5t100 71.5q25 30 33 71t8 128v72q0 100 -39 140t-138 40h-59v63h629v-63h-31q-99 0 -130.5 -31t-31.5 -125v-434h-63q-15 18 -45 57q-20 27 -35 27q-7 0 -18 -6t-68 -43q-106 -66 -246 -66q-174 0 -322.5 93.5t-235.5 254 t-87 347.5z" />
<glyph unicode="H" horiz-adv-x="1492" d="M66 0v61l26 2q47 3 73 9t46.5 17t29 35t12 55.5t3.5 86.5v834q0 55 -3.5 86.5t-12 55.5t-29 35t-46.5 17t-73 9l-26 2v61h585v-61l-22 -2q-41 -4 -63.5 -7.5t-43.5 -13t-30.5 -21t-16.5 -35t-8.5 -51.5t-1.5 -75v-338h561v338q0 47 -1.5 75t-8.5 51.5t-16.5 35t-30.5 21 t-43.5 13t-63.5 7.5l-22 2v61h583v-61l-24 -2q-39 -3 -62.5 -7t-44 -13t-30 -21t-16.5 -36t-9 -52t-2 -74v-834q0 -46 2 -74t9 -52t16.5 -36t30 -21t44 -13t62.5 -7l24 -2v-61h-583v61l22 2q41 4 63.5 7.5t43.5 13t30.5 21t16.5 35t8.5 51.5t1.5 75v420h-561v-420 q0 -47 1.5 -75t8.5 -51.5t16.5 -35t30.5 -21t43.5 -13t63.5 -7.5l22 -2v-61h-585z" />
<glyph unicode="I" horiz-adv-x="720" d="M61 0v61l31 2q39 3 62.5 6.5t43.5 12.5t30 21.5t17 36t9 52t2 74.5v834q0 46 -2 74.5t-9 52t-17 36t-30 21.5t-43.5 12.5t-62.5 6.5l-31 2v61h598v-61l-30 -2q-39 -3 -62.5 -6.5t-43.5 -12.5t-30 -21.5t-17 -36t-9 -52t-2 -74.5v-834q0 -46 2 -74.5t9 -52t17 -36 t30 -21.5t43.5 -12.5t62.5 -6.5l30 -2v-61h-598z" />
<glyph unicode="J" horiz-adv-x="997" d="M25 246q0 72 44 121t109 49q54 0 90.5 -35.5t36.5 -87.5q0 -49 -35.5 -85t-85.5 -36q-21 0 -65 16q17 -67 73.5 -105t139.5 -38q115 0 182 74q29 32 40 71.5t11 106.5v803q0 68 -5 104t-24.5 59t-49 30.5t-85.5 9.5l-49 2v61h627v-61l-41 -2q-56 -2 -85.5 -9.5t-49 -30.5 t-24.5 -59t-5 -104v-744q0 -101 -23 -166t-75 -112q-51 -44 -137.5 -71t-178.5 -27q-143 0 -239 76t-96 190z" />
<glyph unicode="K" horiz-adv-x="1411" d="M66 0v61l26 2q47 3 73 9t46.5 17t29 35t12 55.5t3.5 86.5v834q0 55 -3.5 86.5t-12 55.5t-29 35t-46.5 17t-73 9l-26 2v61h600v-61l-37 -2q-57 -3 -86 -10.5t-48.5 -30.5t-24.5 -58.5t-5 -103.5v-494l455 494q88 97 88 143q0 34 -29 48t-102 14h-39v61h536v-61l-51 -7 q-65 -7 -119.5 -40t-118.5 -101l-307 -336l369 -575q33 -53 50.5 -78t38 -49.5t39 -33.5t41.5 -14.5t58 -7.5l35 -2v-61h-580v61l35 2q49 3 76 19t27 41q0 24 -35 78l-301 465l-166 -183v-217q0 -68 5 -103.5t24.5 -58.5t48.5 -30.5t86 -10.5l37 -2v-61h-600z" />
<glyph unicode="L" horiz-adv-x="1251" d="M66 0v61l26 2q47 3 73 9t46.5 17t29 35t12 55.5t3.5 86.5v834q0 55 -3.5 86.5t-12 55.5t-29 35t-46.5 17t-73 9l-26 2v61h596v-61l-33 -2q-76 -4 -108 -19.5t-44 -54.5t-12 -129v-832q0 -75 4 -102.5t16 -48.5q13 -22 53.5 -34.5t96.5 -12.5q107 0 206.5 41t157.5 110 q46 55 77.5 122.5t58.5 174.5h61l-12 -518h-1118z" />
<glyph unicode="M" horiz-adv-x="1683" d="M57 0v61l35 2q96 6 127 62.5t31 218.5v795q0 104 -28.5 135t-123.5 31h-41v61h451l326 -1006l331 1006h455v-61l-29 -2q-39 -3 -62.5 -6.5t-43.5 -12.5t-30 -21.5t-17 -36t-9 -52t-2 -74.5v-834q0 -46 2 -74.5t9 -52t17 -36t30 -21.5t43.5 -12.5t62.5 -6.5l29 -2v-61 h-582v61q71 8 99.5 14t44.5 19q22 19 29.5 54.5t7.5 117.5v1002l-410 -1268h-68l-409 1268v-924q0 -162 35.5 -222.5t140.5 -60.5h29v-61h-480z" />
<glyph unicode="N" horiz-adv-x="1466" d="M43 0v61l43 2q101 6 137 68q16 27 21.5 59.5t5.5 100.5v921q-34 56 -66.5 74.5t-95.5 18.5h-45v61h350l756 -1028v743q0 123 -35 170t-127 52l-39 2v61h477v-61l-36 -2q-94 -5 -126 -49t-32 -173v-1095h-88l-811 1116v-811q0 -69 6.5 -100.5t26.5 -59.5q45 -62 151 -68 l41 -2v-61h-514z" />
<glyph unicode="O" horiz-adv-x="1437" d="M88 676q0 146 50.5 279.5t136.5 230t204 154t248 57.5q173 0 315.5 -92t224 -252t81.5 -355q0 -130 -48 -263.5t-133 -239.5q-186 -226 -452 -226q-267 0 -457 236q-170 208 -170 471zM330 682q0 -332 108 -496q49 -76 116.5 -110.5t166.5 -34.5q197 0 291 147.5 t94 456.5q0 358 -88.5 519t-286.5 161q-216 0 -309 -166q-92 -165 -92 -477z" />
<glyph unicode="P" horiz-adv-x="1255" d="M63 0v61l29 2q39 3 62.5 6.5t43.5 12.5t30 21.5t17 36t9 52t2 74.5v834q0 46 -2 74.5t-9 52t-17 36t-30 21.5t-43.5 12.5t-62.5 6.5l-29 2v61h660q212 0 330 -82q73 -49 114 -124t41 -159q0 -102 -62 -192t-165 -137q-89 -41 -246 -41h-270v-365q0 -68 5 -103.5 t24.5 -58.5t48.5 -30.5t86 -10.5l37 -2v-61h-603zM465 696h221q154 0 225.5 70t71.5 219q0 322 -309 322q-139 0 -178 -39q-19 -20 -25 -52t-6 -114v-406z" />
<glyph unicode="Q" horiz-adv-x="1447" d="M94 676q0 283 178 491q94 108 215.5 169t243.5 61q126 0 253.5 -64t213.5 -170q154 -189 154 -456q0 -195 -89 -359.5t-255 -277.5q12 -90 48 -142.5t85 -52.5q58 0 93 47t52 146l68 2v-23q0 -152 -78 -244t-207 -92q-110 0 -181 69.5t-71 176.5v31q-60 -8 -92 -8 q-217 0 -385 151q-246 225 -246 545zM336 682q0 -248 63 -406q26 -65 56.5 -104t87.5 -78q-43 77 -43 135q0 94 61 158t150 64q57 0 110.5 -28.5t87.5 -76.5q24 -34 38.5 -70t35.5 -110q72 87 99.5 198t27.5 310q0 354 -94 502q-44 69 -121 109t-164 40q-91 0 -172 -44.5 t-127 -119.5q-96 -155 -96 -479zM578 227q0 -71 51 -121.5t121 -50.5q22 0 77 15q1 2 2 5.5t2 4.5q15 56 15 113q0 85 -36 132.5t-101 47.5q-55 0 -93 -42t-38 -104z" />
<glyph unicode="R" horiz-adv-x="1368" d="M66 0v61l26 2q47 3 73 9t46.5 17t29 35t12 55.5t3.5 86.5v834q0 55 -3.5 86.5t-12 55.5t-29 35t-46.5 17t-73 9l-26 2v61h667q109 0 184.5 -17t139.5 -57q73 -46 114 -116t41 -150q0 -95 -54 -174.5t-148 -122.5q-88 -43 -242 -51q118 -37 175.5 -110.5t111.5 -254.5 q28 -94 50 -132t48 -38q33 0 50 35t24 119l65 -2q-3 -96 -18 -143q-25 -78 -79 -121t-126 -43q-84 0 -141 55t-80 158q-9 48 -17 213q-7 149 -65 201t-215 55l-86 2v-406q0 -90 12 -129t44 -54.5t108 -19.5l33 -2v-61h-596zM465 733h88q241 0 307 31q127 59 127 242 q0 146 -84 227q-38 36 -88 50.5t-137 14.5q-88 0 -130 -9t-61 -32q-15 -20 -18.5 -45.5t-3.5 -111.5v-367z" />
<glyph unicode="S" horiz-adv-x="1175" d="M104 506h70q46 -215 164.5 -340t275.5 -125q125 0 208 76t83 190q0 215 -299 291l-121 31q-177 44 -271.5 140.5t-94.5 231.5q0 160 124 276t296 116q78 0 125 -16.5t165 -84.5q17 -10 31 -10q16 0 32 17t44 67l61 -2l4 -459l-61 -4q-45 130 -68 182.5t-55 94.5 q-108 147 -276 147q-112 0 -185 -66t-73 -167q0 -53 25.5 -102.5t68.5 -78.5q62 -46 217 -90l127 -37q183 -54 269.5 -146.5t86.5 -234.5q0 -116 -62.5 -215t-169 -157t-231.5 -58q-76 0 -127.5 17t-179.5 86q-24 8 -33 8q-21 0 -43 -18t-59 -66h-66z" />
<glyph unicode="T" horiz-adv-x="1226" d="M27 895l14 471h1151l8 -471l-61 -2q-18 97 -36.5 151.5t-53.5 104.5q-55 83 -127.5 119.5t-180.5 36.5h-24v-1039q0 -68 5 -104t24.5 -59t49 -30.5t85.5 -9.5l51 -2v-61h-637v61l49 2q56 2 85.5 9.5t49 30.5t24.5 59t5 104v1039h-37q-164 0 -263.5 -107t-119.5 -305z" />
<glyph unicode="U" horiz-adv-x="1462" d="M25 1305v61h608v-61l-35 -2q-76 -4 -108 -19.5t-44 -54.5t-12 -129v-688q0 -111 17.5 -171.5t62.5 -105.5q44 -44 110.5 -69t141.5 -25q112 0 203 46t139 124q31 53 42 106.5t11 151.5v608q0 74 -9 113t-34 67q-21 24 -48.5 33.5t-86.5 12.5l-33 2v61h492v-61l-37 -2 q-97 -6 -135 -66q-16 -27 -21.5 -59.5t-5.5 -100.5v-608q0 -137 -23.5 -213.5t-86.5 -140.5q-140 -146 -390 -146q-291 0 -438 170q-48 58 -64 123.5t-16 206.5v631q0 68 -5 103.5t-24.5 58.5t-48.5 30.5t-86 10.5z" />
<glyph unicode="V" horiz-adv-x="1284" d="M-14 1305v61h585v-61h-36q-148 0 -148 -76q0 -42 23 -109l303 -829l250 694q53 145 53 227q0 44 -34 68.5t-97 24.5h-37v61h448v-61l-28 -2q-71 -4 -105 -44.5t-84 -177.5l-395 -1087l-86 -2l-408 1153q-26 75 -59 125q-27 35 -104 35h-41z" />
<glyph unicode="W" horiz-adv-x="1837" d="M0 1305v61h526v-61h-34q-57 0 -88 -19.5t-31 -54.5q0 -16 16 -74q49 -155 139.5 -439t114.5 -360l219 674l-35 109q-31 97 -59.5 127t-93.5 35l-31 2v61h539v-61h-49q-115 0 -115 -84q0 -18 24 -97l252 -786l211 663q47 146 47 203q0 101 -129 101h-53v61h467v-61l-31 -2 q-73 -4 -113.5 -52t-80.5 -172l-348 -1083h-68l-293 903l-295 -903h-65l-373 1145q-32 100 -62.5 132t-93.5 32h-14z" />
<glyph unicode="X" horiz-adv-x="1423" d="M14 0v61l27 5q60 10 98.5 23.5t79 48.5t73.5 76.5t95 127.5l238 332l-265 420q-62 99 -96.5 138t-71.5 53.5t-110 17.5l-41 2v61h649v-61l-49 -2q-57 -3 -79.5 -14.5t-22.5 -39.5q0 -43 53 -125l168 -262l155 217q84 119 84 168q0 30 -22 41.5t-86 14.5l-49 2v61h526v-61 l-43 -5q-95 -9 -144.5 -42.5t-125.5 -137.5l-246 -336l336 -534q39 -62 57.5 -88t45 -51t52.5 -33t68 -12l41 -5v-61h-649v61l47 2q71 3 101 21t30 55q0 47 -43 111l-223 346l-170 -240q-119 -166 -119 -217q0 -35 31 -51.5t100 -21.5l57 -5v-61h-557z" />
<glyph unicode="Y" horiz-adv-x="1243" d="M-14 1305v61h587v-61l-51 -2q-65 -3 -90.5 -17t-25.5 -47q0 -42 49 -133l221 -420l205 358q77 138 77 189q0 37 -29 54.5t-95 17.5h-52v61h475v-61h-32q-41 0 -66.5 -7.5t-56.5 -35t-63 -78t-81 -140.5l-243 -454v-324q0 -55 4 -87.5t13 -56.5t29 -35.5t46.5 -17 t71.5 -6.5l57 -2v-61h-651v61l57 2q45 1 71.5 6.5t46.5 17t29 35.5t13 56.5t4 87.5v324l-281 516q-68 125 -103 159t-104 38z" />
<glyph unicode="Z" horiz-adv-x="1155" d="M82 0v57l737 1233h-102q-186 0 -297 -34.5t-174 -112.5q-37 -45 -56 -98t-28 -140l-64 4l19 457h944v-70l-733 -1220h110q177 0 281.5 34t173.5 113q54 60 83 126.5t44 166.5l59 -2l-18 -514h-979z" />
<glyph unicode="[" horiz-adv-x="770" d="M158 -354v1720h356v-70l-45 -4q-110 -9 -143 -51q-14 -17 -17.5 -40t-3.5 -91v-1184q0 -70 4.5 -101t18.5 -48q16 -21 53 -38.5t80 -21.5l53 -6v-65h-356z" />
<glyph unicode="\" horiz-adv-x="858" d="M102 1366h91l706 -1720h-90z" />
<glyph unicode="]" horiz-adv-x="770" d="M256 -285l45 4q109 9 143 52q14 17 17.5 40t3.5 91v1183q0 71 -5 102t-18 48q-15 21 -52.5 38t-80.5 21l-53 6v66h356v-1720h-356v69z" />
<glyph unicode="^" horiz-adv-x="1024" d="M-55 580l575 854h15l542 -854h-96l-381 591l-399 -591h-256z" />
<glyph unicode="_" horiz-adv-x="1024" d="M0 -182h1024v-113h-1024v113z" />
<glyph unicode="`" horiz-adv-x="1024" d="M211 1339q0 35 23.5 58.5t58.5 23.5q32 0 60.5 -17t92.5 -73l201 -180l-33 -51l-262 114q-85 36 -113 61t-28 64z" />
<glyph unicode="a" horiz-adv-x="1069" d="M70 213q0 55 33 107.5t90 87.5q156 100 481 184v86q0 129 -41 170q-49 49 -170 49q-120 0 -193 -51q41 -10 63.5 -40t22.5 -73q0 -50 -34.5 -83.5t-85.5 -33.5q-52 0 -88.5 34.5t-36.5 82.5q0 101 114 167.5t289 66.5q106 0 186.5 -29.5t120.5 -83.5q43 -55 43 -221v-414 q0 -66 13 -91.5t45 -25.5q35 0 53 32.5t26 109.5l64 -2v-19q0 -104 -57 -168.5t-148 -64.5q-82 0 -133 57q-29 34 -45 117q-94 -184 -305 -184q-133 0 -220 66t-87 167zM287 219q0 -67 39.5 -109t101.5 -42q61 0 114 31t85 87q27 45 37 95.5t10 142.5v96 q-387 -105 -387 -301z" />
<glyph unicode="b" horiz-adv-x="1124" d="M37 1305v61l328 10v-575q54 91 114 129.5t150 38.5q113 0 208 -63t150 -171.5t55 -236.5q0 -101 -39 -196.5t-102.5 -165.5t-150.5 -113t-179 -43q-55 0 -102 15.5t-113 55.5q-51 33 -71 33q-15 0 -25 -10t-27 -43l-16 -31h-72q29 104 29 174v965q0 62 -7 93t-24 46 q-2 3 -5 5t-7 4t-7 3t-9.5 2.5t-10.5 2.5t-13 2.5t-15 2t-18.5 2.5t-20.5 3zM358 420q0 -190 52 -281.5t159 -91.5q62 0 116.5 34t82.5 91q55 113 55 313t-56.5 308t-160.5 108q-120 0 -184 -124.5t-64 -356.5z" />
<glyph unicode="c" horiz-adv-x="976" d="M82 469q0 134 67.5 249.5t183 184t249.5 68.5q133 0 225 -66.5t92 -163.5q0 -60 -35.5 -101.5t-89.5 -41.5q-44 0 -75 32t-31 79q0 43 28 73.5t66 30.5q14 0 41 -8q-61 98 -205 98t-220.5 -109t-76.5 -313t76.5 -319t212.5 -115q79 0 145 42.5t135 137.5l50 -34 q-71 -116 -159 -170t-208 -54q-93 0 -180 41t-150.5 108.5t-102 159.5t-38.5 191z" />
<glyph unicode="d" horiz-adv-x="1196" d="M82 459q0 133 62.5 250t167.5 186.5t225 69.5q87 0 146 -33t118 -113v320q0 101 -23 131t-100 33l-41 2v61l354 10v-1149q0 -71 9.5 -102.5t33 -44t80.5 -17.5l21 -2v-61l-328 -10v170q-65 -98 -134 -141.5t-163 -43.5q-112 0 -211 66t-158 178t-59 240zM301 471 q0 -207 59.5 -317.5t171.5 -110.5q126 0 198.5 112t72.5 310q0 201 -66.5 316.5t-183.5 115.5q-118 0 -185 -113t-67 -313z" />
<glyph unicode="e" horiz-adv-x="1013" d="M82 475q0 129 61 242t164.5 180.5t222.5 67.5q106 0 195.5 -53t144.5 -150q63 -111 68 -283h-643q-2 -12 -2 -30q0 -189 104 -314q66 -84 187 -84q81 0 141.5 39.5t144.5 145.5l58 -35q-82 -122 -166 -174t-199 -52q-129 0 -240 67.5t-176 182.5t-65 250zM297 547h432 q-1 173 -53 262.5t-150 89.5q-101 0 -162 -93t-67 -259z" />
<glyph unicode="f" horiz-adv-x="692" d="M43 0v61l68 2q77 3 99.5 33t22.5 131v647h-190v68h190v57q0 105 20 165.5t71 111.5q101 104 272 104q101 0 161 -39t60 -104q0 -47 -31.5 -78t-78.5 -31q-48 0 -79.5 29.5t-31.5 75.5q0 39 37 76q-30 12 -55 12q-37 0 -73 -17t-54 -44q-27 -44 -27 -154v-164h238v-68 h-238v-647q0 -101 23 -131.5t100 -32.5l84 -2v-61h-588z" />
<glyph unicode="g" horiz-adv-x="989" d="M57 -141q0 45 20 81t56.5 60.5t76.5 41t93 30.5q-105 29 -121 38q-6 4 -14 9q-45 36 -45 84q0 76 115 135q59 32 102 43q-238 90 -238 276q0 130 112.5 222t272.5 92q111 0 191 -39q9 70 52.5 110.5t109.5 40.5q52 0 87.5 -30t35.5 -74q0 -35 -25.5 -60.5t-60.5 -25.5 t-58.5 22t-23.5 56q0 13 8 37h-6q-25 0 -43.5 -25t-18.5 -61v-19q77 -59 106 -108t29 -121q0 -134 -109 -227t-267 -93q-28 0 -48 2q-78 -9 -125 -31.5t-47 -50.5q0 -32 46 -45.5t176 -19.5q162 -9 235 -22t125 -44q121 -71 121 -194q0 -146 -140.5 -245t-347.5 -99 q-185 0 -308.5 72.5t-123.5 181.5zM207 -123q0 -94 82.5 -151.5t216.5 -57.5q138 0 235 60t97 145q0 88 -99 127q-109 41 -274 41q-120 0 -189 -44.5t-69 -119.5zM301 659q0 -120 48.5 -183.5t139.5 -63.5q92 0 136.5 60t44.5 185q0 126 -47 192t-138 66q-88 0 -136 -67 t-48 -189z" />
<glyph unicode="h" horiz-adv-x="1191" d="M43 0v61l39 2q55 3 79.5 16t34 45.5t9.5 102.5v912q0 70 -9.5 102.5t-34 45.5t-79.5 16l-39 2v61l352 10v-616q61 106 132.5 152t172.5 46q146 0 224 -90q46 -54 61.5 -117t15.5 -192v-332q0 -71 9.5 -102.5t33 -44t80.5 -17.5l23 -2v-61l-336 2v606q0 94 -7.5 136 t-29.5 73q-48 64 -125 64q-119 0 -192 -127q-34 -59 -48 -126t-14 -175v-226q0 -70 9.5 -102.5t34 -45.5t79.5 -16l39 -2v-61h-514z" />
<glyph unicode="i" horiz-adv-x="630" d="M70 0v61l39 2q41 2 63 8.5t36.5 25.5t18.5 48t4 82v488q0 53 -4 82t-18.5 48t-36.5 25.5t-63 8.5l-33 2v61l346 8v-723q0 -70 9.5 -102.5t34 -45.5t79.5 -16l39 -2v-61h-514zM193 1260q0 46 33 79t79 33q47 0 80 -34t33 -81q0 -44 -33.5 -77t-79.5 -33t-79 33.5t-33 79.5 z" />
<glyph unicode="j" horiz-adv-x="559" d="M-178 -186q0 32 14.5 59t40 42t55.5 15q46 0 78.5 -30t32.5 -74q0 -37 -19.5 -61t-62.5 -41q9 -12 19.5 -20t22.5 -13t26 -7.5t32 -2.5q63 0 111 45q28 25 35.5 55t7.5 119v815q0 61 -7 92.5t-24 46.5q-8 8 -22.5 12t-56.5 11q-16 2 -25 4v61l326 8v-936q0 -120 -12 -172 t-50 -102q-42 -57 -111 -88t-149 -31q-103 0 -182.5 59t-79.5 134zM178 1260q0 47 33.5 80.5t79.5 33.5q31 0 57.5 -15t42 -41.5t15.5 -57.5q0 -46 -34 -79.5t-81 -33.5q-46 0 -79.5 33.5t-33.5 79.5z" />
<glyph unicode="k" horiz-adv-x="1116" d="M47 0v61l35 2q41 2 63.5 8.5t37 25.5t18.5 48t4 82v912q0 54 -4 83t-19 47t-36.5 24.5t-63.5 9.5l-27 2v61l340 10v-917l322 280q43 38 56 56.5t13 38.5q0 25 -23.5 36t-78.5 11h-33v61h457v-61h-25q-52 0 -92 -18.5t-102 -71.5l-238 -205l267 -396q37 -54 64.5 -78.5 t56.5 -34.5t87 -16v-61h-292l-314 469l-125 -109v-133q0 -101 23 -131t100 -33l43 -2v-61h-514z" />
<glyph unicode="l" horiz-adv-x="600" d="M45 0v61l37 2q55 3 79.5 16t34 45.5t9.5 102.5v912q0 70 -9.5 102.5t-34 45.5t-79.5 16l-35 2v61l348 10v-1149q0 -101 23 -131t100 -33l41 -2v-61h-514z" />
<glyph unicode="m" horiz-adv-x="1740" d="M63 0v61l46 2q77 3 99.5 33t22.5 131v488q0 101 -22.5 131t-99.5 33l-41 2v61l340 8l-2 -174q96 187 288 187q97 0 162.5 -46.5t108.5 -146.5q53 95 123 140.5t165 45.5q76 0 139 -27.5t99 -78.5q32 -46 44.5 -101t12.5 -155v-367q0 -71 9.5 -102.5t33 -44t80.5 -17.5 l23 -2v-61l-336 2v573q0 179 -33 230q-40 63 -123 63q-47 0 -90 -25t-72 -71q-33 -53 -43 -107t-10 -180v-258q0 -70 9.5 -102.5t34 -45.5t79.5 -16l33 -2v-61h-346v543q0 120 -7.5 175.5t-27.5 86.5q-46 69 -125 69q-88 0 -152 -88q-37 -54 -50 -115.5t-13 -185.5v-258 q0 -101 23 -131t100 -33l43 -2v-61h-525z" />
<glyph unicode="n" horiz-adv-x="1218" d="M78 0v61l31 2q41 2 63 8.5t36.5 25.5t18.5 48t4 82v488q0 101 -21.5 129.5t-100.5 34.5l-27 2v61l334 8l-2 -221q119 232 334 232q69 0 127.5 -27t93.5 -74q34 -44 46.5 -97.5t12.5 -152.5v-383q0 -101 22 -129.5t101 -34.5l27 -2v-61h-340v610q0 128 -29 187 q-17 34 -53.5 55.5t-77.5 21.5q-67 0 -127 -49t-94 -131q-35 -85 -35 -282v-185q0 -101 23 -131t100 -33l55 -2v-61h-522z" />
<glyph unicode="o" horiz-adv-x="1110" d="M82 465q0 87 35.5 176t97.5 160q145 160 340 160q201 0 340 -160q63 -70 98 -159t35 -177q0 -129 -65 -240.5t-175.5 -177t-238.5 -65.5q-122 0 -230 67t-172.5 178.5t-64.5 237.5zM301 463q0 -207 64 -313.5t188 -106.5q256 0 256 420q0 215 -64.5 325.5t-189.5 110.5 t-189.5 -110.5t-64.5 -325.5z" />
<glyph unicode="p" horiz-adv-x="1202" d="M35 -293l49 2q77 3 100 33t23 131v842q0 101 -23 131t-100 33l-41 2v61l346 8v-184q95 197 293 197q117 0 217.5 -65.5t159.5 -176.5t59 -240q0 -134 -60 -248t-163.5 -180.5t-224.5 -66.5q-182 0 -273 147v-260q0 -100 24.5 -130.5t102.5 -33.5l62 -2v-61h-551v61z M397 453q0 -110 17 -180t55 -123q34 -45 82 -70t102 -25q120 0 183 104.5t63 303.5q0 198 -65.5 311t-180.5 113q-66 0 -123.5 -43t-91.5 -117q-41 -93 -41 -274z" />
<glyph unicode="q" horiz-adv-x="1128" d="M82 453q0 134 64.5 252.5t173.5 189t233 70.5q98 0 178 -52l64 -45q24 -18 41 -18q14 0 26 11t47 61l15 20h71q-12 -28 -16 -67t-4 -136l-2 -866q0 -102 22.5 -131.5t100.5 -32.5l43 -2v-61h-537v61l57 2q77 3 100 33t23 131v244q-50 -71 -109 -102t-145 -31 q-186 0 -316 137t-130 332zM301 483q0 -206 64 -316t184 -110q61 0 112.5 34t79.5 93q27 58 37 121t10 180q0 139 -13.5 210t-49.5 122q-26 35 -73.5 58.5t-94.5 23.5q-120 0 -188 -110.5t-68 -305.5z" />
<glyph unicode="r" horiz-adv-x="886" d="M68 0v61l43 2q77 3 99.5 33t22.5 131v488q0 53 -4 82t-18.5 48t-36.5 25.5t-63 8.5l-35 2v61l338 8l-6 -278q41 104 65 143q85 143 232 143q74 0 123 -37t49 -94q0 -46 -34.5 -80t-80.5 -34t-78.5 29t-32.5 69q0 60 49 72q-8 14 -26 14q-51 0 -99.5 -48.5t-85.5 -137.5 q-35 -86 -50 -181.5t-15 -234.5v-68q0 -83 2 -101.5t14 -31.5q22 -28 101 -31l75 -2v-61h-548z" />
<glyph unicode="s" horiz-adv-x="923" d="M92 0l2 342l58 2q37 -93 52.5 -123t37.5 -59q44 -54 109.5 -85.5t133.5 -31.5q82 0 139.5 51.5t57.5 124.5q0 125 -199 180l-92 25q-152 41 -219.5 103t-67.5 159q0 115 98.5 197t235.5 82q107 0 203 -60q20 -14 37 -14q23 0 35 53h63l2 -297l-65 -2q-36 85 -48 109.5 t-30 48.5q-75 100 -197 100q-78 0 -130 -42t-52 -105q0 -60 42 -93.5t155 -64.5l110 -31q142 -40 209.5 -107t67.5 -171q0 -129 -102.5 -219t-248.5 -90q-121 0 -258 73q-22 11 -28 11q-26 0 -51 -66h-60z" />
<glyph unicode="t" horiz-adv-x="724" d="M37 874v62q131 25 195 100.5t83 225.5h68v-320h315l2 -68h-317v-571q0 -105 18 -158q12 -38 42 -61t67 -23q35 0 68 19t53 51q15 28 21.5 61t11.5 101l2 26h67q0 -94 -15 -151q-20 -89 -87.5 -136.5t-173.5 -47.5q-130 0 -199 69q-40 40 -52.5 88t-12.5 162v571h-156z " />
<glyph unicode="u" horiz-adv-x="1200" d="M55 881v61l326 8v-643q0 -68 7 -102t26 -64q20 -31 53 -50t68 -19q57 0 112.5 34t93.5 93q34 53 47 109.5t13 150.5v256q0 70 -9.5 102.5t-34 45.5t-79.5 16l-35 2v61l348 8v-723q0 -70 9.5 -102.5t34 -45.5t79.5 -16l31 -2v-61l-326 -10v237q-26 -58 -48.5 -90 t-57.5 -63q-102 -86 -221 -86q-72 0 -138 27t-104 73q-34 42 -47 100t-13 174v353q0 113 -30 139q-9 9 -27 13.5t-78 13.5z" />
<glyph unicode="v" horiz-adv-x="1058" d="M-6 881v61h493v-61l-38 -2q-111 -6 -111 -54q0 -26 24 -88l224 -538l196 463q19 45 28.5 70.5t13 42t3.5 32.5q0 34 -25 51.5t-79 20.5l-35 2v61h391v-61l-28 -4q-41 -6 -61.5 -12t-41 -27t-34.5 -49.5t-40 -90.5l-299 -710h-94l-323 772q-17 39 -29.5 60t-32.5 34.5 t-41 18t-61 8.5z" />
<glyph unicode="w" horiz-adv-x="1599" d="M14 881v61h478v-61h-41q-45 0 -64.5 -10t-19.5 -33q0 -21 22 -86l178 -504l193 532q-15 58 -41.5 79.5t-83.5 21.5h-37v61h473v-61h-51q-47 0 -65.5 -9t-18.5 -32q0 -4 29 -88l176 -504l145 393q51 136 51 176q0 35 -23 49.5t-79 14.5h-41v61h405v-61h-36q-65 0 -102 -41 t-81 -162l-256 -694l-82 2l-241 678l-250 -680h-86l-262 745q-35 98 -62.5 125t-91.5 27h-35z" />
<glyph unicode="x" horiz-adv-x="1114" d="M0 0v61l27 2q88 6 150.5 47.5t152.5 153.5l141 174l-264 328q-46 57 -66.5 77t-44.5 29t-69 9h-17v61h504v-61h-43q-45 0 -62.5 -6t-17.5 -21q0 -19 55 -88l146 -184l94 116q84 104 84 138q0 24 -23.5 34.5t-76.5 10.5h-31v61h448v-61l-36 -2q-74 -5 -136 -50t-161 -167 l-115 -142l199 -264q85 -114 133.5 -151t113.5 -42l29 -2v-61h-522v61h24q57 0 79 9t22 34q0 14 -8.5 28.5t-44.5 60.5l-146 184l-92 -113q-56 -68 -76 -99t-20 -50q0 -25 25 -39.5t65 -14.5h26v-61h-446z" />
<glyph unicode="y" horiz-adv-x="1062" d="M-6 881v61h493v-61h-38q-56 0 -78.5 -9.5t-22.5 -33.5q0 -13 33 -88l225 -514l193 464q37 92 37 119q0 29 -24.5 43t-82.5 17l-49 2v61h403v-61l-30 -2q-67 -4 -87.5 -23t-56.5 -106l-374 -875q-57 -134 -127 -194t-170 -60q-89 0 -151 53t-62 129q0 54 35.5 91.5 t86.5 37.5q49 0 84 -34t35 -80q0 -77 -86 -101q22 -22 60 -22q147 0 237 233l25 64l-324 758q-34 80 -64.5 105.5t-93.5 25.5h-26z" />
<glyph unicode="z" horiz-adv-x="925" d="M68 0v68l559 809h-86q-135 0 -186 -10.5t-97 -47.5q-39 -33 -62.5 -72t-43.5 -106l-54 2l4 299h756v-49l-573 -825h63q206 0 306.5 62.5t152.5 223.5h51l-6 -354h-784z" />
<glyph unicode="{" horiz-adv-x="1024" d="M213 604v39q107 6 146.5 43t39.5 131q0 8 -1 40t-1 48l-2 148q-1 163 21.5 240.5t81.5 117.5q37 25 83.5 31.5t202.5 7.5q17 0 37 2v-49q-152 -2 -204 -60t-52 -206v-310q0 -83 -45.5 -134t-130.5 -66v-6q66 -9 111 -49.5t57 -102.5q8 -43 8 -188v-199 q0 -174 52.5 -235.5t203.5 -61.5v-47q-167 3 -204 5.5t-70 12.5q-80 25 -117 93.5t-37 191.5q0 14 1 60t2.5 136t2.5 199q0 89 -43 127.5t-143 40.5z" />
<glyph unicode="|" horiz-adv-x="1024" d="M440 -342v1708h146v-1708h-146z" />
<glyph unicode="}" horiz-adv-x="1024" d="M203 -215q79 0 128.5 14.5t78 48.5t39 82t10.5 125q0 21 1 120.5t1 209.5q0 207 174 236v6q-129 22 -164 127q-3 8 -4.5 14.5t-3 11t-2.5 11.5t-1.5 11t-0.5 14v15v21v25v301q0 126 -58 175.5t-198 49.5v49q20 -2 37 -2l86 -2q106 -3 157 -18.5t84 -57.5 q35 -44 48.5 -112.5t13.5 -202.5q0 -12 -2 -111.5t-2 -130.5q0 -92 40 -129t146 -43v-39q-103 -5 -145 -41.5t-41 -122.5l6 -401q1 -127 -40.5 -197t-129.5 -90q-30 -7 -65 -9t-193 -5v47z" />
<glyph unicode="~" horiz-adv-x="1366" d="M262 1270q120 211 279 211q50 0 178 -43q108 -39 162 -39q104 0 186 104l35 -22q-49 -93 -125.5 -150t-151.5 -57q-32 0 -60.5 7.5t-174.5 55.5q-68 21 -117 21q-45 0 -74 -17.5t-84 -72.5q-2 -1 -4.5 -4t-6.5 -7.5t-7 -7.5z" />
<glyph unicode="&#xa1;" horiz-adv-x="587" d="M170 834q0 49 35.5 84.5t85.5 35.5q51 0 86 -36t35 -89q0 -47 -36 -81.5t-85 -34.5q-50 0 -85.5 35t-35.5 86zM186 -287q0 8 2 28t4.5 50t4.5 49l65 668h68l76 -668q10 -82 10 -125q0 -63 -32 -100t-87 -37q-53 0 -82 35.5t-29 99.5z" />
<glyph unicode="&#xa2;" d="M197 686q0 157 98.5 277.5t259.5 160.5v195h76v-191q123 -1 198.5 -56.5t75.5 -143.5q0 -52 -31 -87.5t-77 -35.5q-38 0 -65 27t-27 67q0 37 23 64.5t54 27.5q16 0 37 -6q-41 80 -164 80q-14 0 -24 -2v-737q74 -2 131 33t119 122l43 -39q-118 -183 -293 -186v-256h-76 v258q-158 26 -258 145.5t-100 282.5zM385 690q0 -139 55 -246q23 -44 46 -65t69 -41v713q-88 -31 -129 -118.5t-41 -242.5z" />
<glyph unicode="&#xa3;" d="M-57 150q0 70 70 117.5t173 47.5q99 0 193 -43q17 -8 28 -14.5t43.5 -27.5t77.5 -48l35 -20q72 75 72 178q0 135 -150 240h-381v73h304q-142 105 -208.5 201.5t-66.5 198.5q0 149 108.5 249.5t268.5 100.5q133 0 226 -64t93 -155q0 -51 -33.5 -86t-80.5 -35q-43 0 -75 30 t-32 70q0 38 24 67t64 40q-26 30 -73 48.5t-97 18.5q-94 0 -160.5 -65t-66.5 -156q0 -153 217 -334l156 -129h383v-73h-307q36 -53 50.5 -95t14.5 -92q0 -149 -147 -284q40 -26 70.5 -36t70.5 -10q135 0 244 136l57 -45q-129 -181 -303 -181q-116 0 -225 72 q-141 -82 -314 -82q-146 0 -234.5 51t-88.5 136zM102 135q0 -40 51.5 -70t120.5 -30q128 0 207 59q-73 52 -147.5 81.5t-130.5 29.5q-41 0 -71 -20.5t-30 -49.5z" />
<glyph unicode="&#xa4;" horiz-adv-x="1366" d="M104 1200l76 76l193 -193q145 103 309 103q78 0 144 -22.5t163 -82.5l197 197l76 -76l-199 -198q56 -94 77 -159.5t21 -144.5q0 -80 -21 -144t-79 -157l199 -196l-76 -76l-195 195q-92 -59 -160 -82t-147 -23t-146.5 22t-158.5 78l-193 -192l-75 76l190 192 q-58 91 -80 154t-22 143q0 143 98 318zM356 700q0 -133 96 -229t230 -96t230 94.5t96 226.5q0 139 -94.5 235.5t-231.5 96.5q-134 0 -230 -96.5t-96 -231.5z" />
<glyph unicode="&#xa5;" d="M6 1305v61h520v-61l-24 -2q-61 -4 -83 -18.5t-22 -47.5q0 -11 2 -19.5t5.5 -16.5t16 -36t25.5 -59l160 -393l158 331q65 138 65 185q0 39 -26 57.5t-86 18.5h-23v61h406v-61h-21q-68 0 -113.5 -53t-115.5 -208l-59 -131h266v-71h-299l-105 -230h404v-71h-416v-275 q0 -90 12 -129t44 -54.5t108 -19.5l33 -2v-61h-596v61l32 2q76 4 108 19.5t44 54.5t12 129v275h-389v71h377l-96 230h-281v71h250l-80 193q-33 79 -64 121.5t-58.5 57t-69.5 18.5z" />
<glyph unicode="&#xa6;" horiz-adv-x="1024" d="M440 313h146v-655h-146v655zM440 666v700h146v-700h-146z" />
<glyph unicode="&#xa7;" d="M129 76q0 58 32.5 96.5t80.5 38.5q46 0 77 -37.5t31 -91.5q0 -36 -20 -92q-6 -15 -6 -29q0 -37 68.5 -69.5t146.5 -32.5q125 0 197.5 59t72.5 160q0 75 -47.5 110.5t-181.5 63.5q-169 33 -246 67q-93 38 -136.5 97.5t-43.5 148.5q0 85 37.5 148.5t123.5 124.5 q-78 50 -113.5 106.5t-35.5 134.5q0 135 111 224.5t280 89.5q155 0 269 -81t114 -190q0 -49 -32 -81.5t-79 -32.5q-51 0 -82.5 38.5t-31.5 100.5q0 31 12 78q4 16 4 22q0 25 -53.5 46.5t-114.5 21.5q-101 0 -167 -52.5t-66 -132.5q0 -66 39 -100t155 -69q219 -66 271 -93 q76 -38 116.5 -101.5t40.5 -145.5q0 -70 -24.5 -129t-81.5 -123q119 -91 119 -244q0 -148 -119 -245t-299 -97q-172 0 -295 86.5t-123 206.5zM303 641q0 -59 37 -101t104 -61q14 -4 281 -63q27 -9 47 -13q41 49 41 123q0 52 -15 85.5t-63.5 65.5t-125 59.5t-214.5 66.5 q-51 -45 -71.5 -81.5t-20.5 -80.5z" />
<glyph unicode="&#xa8;" horiz-adv-x="1024" d="M233 1266q0 49 35.5 84.5t85.5 35.5q53 0 88 -35t35 -87q0 -50 -36 -85.5t-87 -35.5q-50 0 -85.5 36t-35.5 87zM547 1266q0 51 35.5 85.5t85.5 34.5q52 0 87.5 -34.5t35.5 -85.5t-35.5 -87t-85.5 -36q-51 0 -87 36t-36 87z" />
<glyph unicode="&#xa9;" horiz-adv-x="1646" d="M113 684q0 192 95 355.5t258.5 258.5t356.5 95q115 0 223.5 -36t195.5 -101.5t152.5 -152.5t101.5 -195.5t36 -223.5q0 -195 -95.5 -358.5t-261 -258t-362.5 -94.5q-187 0 -348.5 96.5t-256.5 260.5t-95 354zM184 684q0 -171 85.5 -318.5t231 -234t314.5 -86.5 q177 0 325.5 85t234 232t85.5 322q0 129 -50.5 247t-136 203.5t-203.5 136t-247 50.5q-130 0 -248 -50.5t-204 -135.5t-136.5 -203t-50.5 -248zM451 670q0 172 108 284.5t272 112.5q75 0 168 -37q30 -12 48 -12q12 0 19.5 8t16.5 31q0 1 7 12l34 4v-242h-34 q-26 88 -87.5 136.5t-144.5 48.5q-107 0 -172 -92.5t-65 -247.5q0 -151 64 -235.5t179 -84.5q161 0 271 176v-81q-51 -72 -129.5 -112t-169.5 -40q-169 0 -277 104t-108 267z" />
<glyph unicode="&#xaa;" horiz-adv-x="733" d="M49 680q0 72 80.5 120.5t302.5 108.5v43q0 70 -25.5 94.5t-99.5 24.5q-44 0 -94 -18q41 -25 41 -68q0 -34 -25.5 -57t-62.5 -23t-63.5 24t-26.5 56q0 65 76 106.5t194 41.5q149 0 203 -70q31 -39 31 -137v-242q0 -35 5.5 -47t20.5 -12q19 0 27.5 18.5t13.5 65.5h62v-21 q0 -66 -39.5 -107.5t-102.5 -41.5q-84 0 -118 84q-40 -48 -85.5 -69.5t-107.5 -21.5q-89 0 -148 42t-59 106zM209 682q0 -34 22 -56t56 -22q73 0 116 66q17 24 23 52.5t6 80.5v43q-107 -26 -165 -68.5t-58 -95.5z" />
<glyph unicode="&#xab;" horiz-adv-x="704" d="M88 485l191 322h71l-114 -322l114 -321h-71zM340 485l188 322h74l-113 -322l113 -321h-74z" />
<glyph unicode="&#xac;" horiz-adv-x="1024" d="M68 440v105h886v-545h-243v440h-643z" />
<glyph unicode="&#xad;" horiz-adv-x="477" d="M0 428v115h477v-115h-477z" />
<glyph unicode="&#xae;" horiz-adv-x="1646" d="M113 684q0 192 95 355.5t258.5 258.5t356.5 95q115 0 223.5 -36t195.5 -101.5t152.5 -152.5t101.5 -195.5t36 -223.5q0 -195 -95.5 -358.5t-261 -258t-362.5 -94.5q-187 0 -348.5 96.5t-256.5 260.5t-95 354zM184 684q0 -171 85.5 -318.5t231 -234t314.5 -86.5 q177 0 325.5 85t234 232t85.5 322q0 129 -50.5 247t-136 203.5t-203.5 136t-247 50.5q-130 0 -248 -50.5t-204 -135.5t-136.5 -203t-50.5 -248zM471 1018v39h360q133 0 191 -31q111 -56 111 -176q0 -66 -32.5 -108t-109.5 -76l156 -267q30 -50 86 -53q2 0 6 2v-39h-188 l-201 355h-125v-238q0 -46 14 -62t54 -16h34v-39h-350v39h31q41 0 54 15.5t13 62.5v514q0 49 -12.5 63.5t-54.5 14.5h-37zM725 700h98q72 0 107 25q51 38 51 127q0 75 -41.5 115.5t-116.5 40.5h-98v-308z" />
<glyph unicode="&#xaf;" horiz-adv-x="1024" d="M231 1196v117h562v-117h-562z" />
<glyph unicode="&#xb0;" horiz-adv-x="743" d="M109 1128q0 109 77.5 187t186.5 78q110 0 186 -77.5t76 -191.5q0 -106 -78 -183t-186 -77q-107 0 -184.5 77.5t-77.5 186.5zM205 1128q0 -69 49.5 -119.5t118.5 -50.5t118.5 49.5t49.5 118.5q0 72 -48.5 121t-119.5 49q-69 0 -118.5 -49.5t-49.5 -118.5z" />
<glyph unicode="&#xb1;" horiz-adv-x="1024" d="M35 84v111h952v-111h-952zM35 674v112h418v402h116v-402h418v-112h-418v-389h-116v389h-418z" />
<glyph unicode="&#xb2;" horiz-adv-x="731" d="M74 547v53q27 114 258 313q101 88 129 131.5t28 112.5q0 75 -43 118.5t-118 43.5q-72 0 -115.5 -30.5t-65.5 -96.5q20 10 37 10q29 0 50.5 -23t21.5 -55t-22 -53.5t-56 -21.5q-42 0 -68 30.5t-26 79.5q0 92 77 154.5t191 62.5q126 0 204.5 -62.5t78.5 -160.5 q0 -75 -44.5 -130t-172.5 -138q-168 -107 -252 -228h180q140 0 184 27.5t56 122.5h53l-12 -260h-553z" />
<glyph unicode="&#xb3;" horiz-adv-x="731" d="M66 721q0 50 27.5 83.5t68.5 33.5q34 0 58 -23t24 -55q0 -30 -22 -52t-52 -22q-18 0 -39 6q12 -36 26.5 -53.5t39.5 -28.5q57 -22 114 -22q93 0 145 49.5t52 138.5q0 157 -135 172q-33 -8 -66 -8q-23 0 -37 7.5t-14 19.5q0 32 57 32q17 0 60 -6q57 14 89 57t32 107 q0 78 -43.5 122t-120.5 44q-63 0 -109 -26t-61 -70q12 4 24 4q31 0 53.5 -21.5t22.5 -52.5q0 -32 -24 -55t-56 -23q-38 0 -64 29t-26 72q0 86 74 143t188 57q119 0 201 -62t82 -151q0 -60 -37.5 -104t-120.5 -82q95 -29 136.5 -73.5t41.5 -116.5q0 -109 -96 -184t-235 -75 q-114 0 -186 53t-72 136z" />
<glyph unicode="&#xb4;" horiz-adv-x="1024" d="M375 1151l200 180q60 55 92 72.5t66 17.5t57 -24t23 -58q0 -39 -26 -62.5t-117 -62.5l-262 -114z" />
<glyph unicode="&#xb5;" horiz-adv-x="937" d="M-10 -289q0 45 16 127q26 138 43 336.5t17 368.5v393h192v-588q0 -90 10 -138.5t35 -82.5q41 -51 115 -51q62 0 113 33.5t106 109.5v717h190v-684q0 -97 16.5 -129.5t65.5 -32.5q24 0 60 16v-34l-201 -92q-6 -3 -10 -3q-74 0 -101 121l-8 39q-108 -105 -163.5 -136.5 t-131.5 -31.5q-86 0 -138.5 41.5t-86.5 136.5q0 -100 6 -161q3 -24 35 -170q14 -72 14 -105q0 -44 -27.5 -74t-68.5 -30q-43 0 -70.5 29t-27.5 75z" />
<glyph unicode="&#xb6;" d="M41 1034q0 109 64 193t171 116q52 17 93.5 20t214.5 3h440v-61h-45q-30 0 -47 -1t-31.5 -7.5t-21 -14t-11 -27t-5.5 -40.5t-1 -60v-1112q0 -61 1 -88.5t2 -33.5t5 -11q7 -10 37 -10h88v-62h-221v1460h-129v-1460h-278v62h104q59 0 74 12q8 5 10 18t2 76v703h-127 q-170 0 -279.5 91.5t-109.5 233.5zM199 1038q0 -121 68.5 -191.5t187.5 -70.5h102v529h-20q-102 0 -148 -7.5t-82 -29.5q-108 -68 -108 -230z" />
<glyph unicode="&#xb7;" horiz-adv-x="522" d="M143 485q0 50 35 85.5t84 35.5q51 0 86 -35t35 -86q0 -49 -35.5 -83.5t-85.5 -34.5t-84.5 34.5t-34.5 83.5z" />
<glyph unicode="&#xb8;" horiz-adv-x="1024" d="M365 -332q0 26 19 44t48 18q26 0 44 -17.5t18 -42.5q0 -17 -19 -39q39 -16 72 -16q63 0 106 31.5t43 77.5q0 43 -36 69.5t-97 26.5q-58 0 -121 -31l-43 43l121 168h80l-88 -127q77 14 111 14q77 0 124.5 -40.5t47.5 -106.5q0 -77 -71.5 -130.5t-174.5 -53.5 q-75 0 -129.5 33t-54.5 79z" />
<glyph unicode="&#xb9;" horiz-adv-x="731" d="M162 547v49l61 2q63 1 79.5 21t16.5 92v434q0 73 -17 92.5t-81 19.5h-39v50l29 2q147 10 199 71l47 -2v-667q0 -72 16.5 -92t79.5 -21l63 -2l-2 -49h-452z" />
<glyph unicode="&#xba;" horiz-adv-x="733" d="M55 829q0 120 94 210.5t218 90.5q131 0 222 -84.5t91 -205.5q0 -123 -92.5 -213t-218.5 -90t-220 87t-94 205zM217 829q0 -237 150 -237q76 0 115.5 59.5t39.5 173.5q0 122 -39 186t-112 64q-154 0 -154 -246z" />
<glyph unicode="&#xbb;" horiz-adv-x="704" d="M102 164l113 321l-113 322h72l191 -322l-191 -321h-72zM354 164l113 321l-113 322h70l192 -322l-192 -321h-70z" />
<glyph unicode="&#xbc;" horiz-adv-x="1720" d="M162 547v49l61 2q63 1 79.5 21t16.5 92v434q0 73 -17 92.5t-81 19.5h-39v50l29 2q147 10 199 71l47 -2v-667q0 -72 16.5 -92t79.5 -21l63 -2l-2 -49h-452zM412 0l813 1366h86l-822 -1366h-77zM1038 207v67l410 555h86v-550h145v-72h-145v-43q0 -73 14.5 -90t81.5 -23 l21 -2v-49h-394v49l43 2q63 3 80 22t17 91v43h-359zM1122 279h275v374z" />
<glyph unicode="&#xbd;" horiz-adv-x="1720" d="M162 547v49l61 2q63 1 79.5 21t16.5 92v434q0 73 -17 92.5t-81 19.5h-39v50l29 2q147 10 199 71l47 -2v-667q0 -72 16.5 -92t79.5 -21l63 -2l-2 -49h-452zM412 0l813 1366h86l-822 -1366h-77zM1065 0v53q32 120 258 312q102 88 130 131t28 112q0 75 -43.5 118.5 t-118.5 43.5q-72 0 -115 -30t-65 -95q16 8 37 8q30 0 50.5 -21.5t20.5 -53.5t-22 -54t-56 -22q-41 0 -67.5 30.5t-26.5 79.5q0 91 77 153t191 62q126 0 204.5 -61.5t78.5 -161.5q0 -74 -44.5 -128.5t-172.5 -137.5q-92 -59 -151 -112t-101 -115h180q140 0 184 27t56 122h53 l-12 -260h-553z" />
<glyph unicode="&#xbe;" horiz-adv-x="1720" d="M66 721q0 50 27.5 83.5t68.5 33.5q34 0 58 -23t24 -55q0 -30 -22 -52t-52 -22q-18 0 -39 6q12 -36 26.5 -53.5t39.5 -28.5q57 -22 114 -22q93 0 145 49.5t52 138.5q0 157 -135 172q-33 -8 -66 -8q-23 0 -37 7.5t-14 19.5q0 32 57 32q17 0 60 -6q57 14 89 57t32 107 q0 78 -43.5 122t-120.5 44q-63 0 -109 -26t-61 -70q12 4 24 4q31 0 53.5 -21.5t22.5 -52.5q0 -32 -24 -55t-56 -23q-38 0 -64 29t-26 72q0 86 74 143t188 57q119 0 201 -62t82 -151q0 -60 -37.5 -104t-120.5 -82q95 -29 136.5 -73.5t41.5 -116.5q0 -109 -96 -184t-235 -75 q-114 0 -186 53t-72 136zM410 0l813 1366h86l-822 -1366h-77zM1036 207v67l410 555h86v-550h145v-72h-145v-43q0 -73 14.5 -90t81.5 -23l21 -2v-49h-394v49l43 2q63 3 80 22t17 91v43h-359zM1120 279h275v374z" />
<glyph unicode="&#xbf;" horiz-adv-x="911" d="M82 -141q0 63 25.5 116.5t82.5 110.5q3 3 136 113q92 76 117.5 135.5t25.5 197.5h63q3 -43 3 -65q0 -118 -24.5 -176t-111.5 -146q-71 -72 -98 -126.5t-27 -124.5q0 -122 68 -195.5t180 -73.5q94 0 166 56.5t80 134.5q-29 -15 -55 -15q-47 0 -80 33t-33 80q0 46 32 77.5 t79 31.5q55 0 94 -46.5t39 -111.5q0 -91 -68 -176q-107 -131 -313 -131q-164 0 -272.5 86t-108.5 215zM369 838q0 47 35.5 81.5t82.5 34.5q50 0 84.5 -34.5t34.5 -83.5q0 -50 -35 -84.5t-84 -34.5q-50 0 -84 35t-34 86z" />
<glyph unicode="&#xc0;" horiz-adv-x="1462" d="M-6 0v61l33 2q93 6 138.5 53t100.5 187l426 1092h74l436 -1067q29 -70 43 -103t33.5 -68.5t30.5 -47.5t34.5 -24.5t43.5 -15.5t59 -6l22 -2v-61h-600v61l27 2q95 7 120 19t25 49q0 20 -7.5 43.5t-35.5 91.5l-77 193h-494l-53 -142q-43 -111 -43 -153q0 -55 37.5 -75 t146.5 -26l39 -2v-61h-559zM430 1755q0 35 23.5 58.5t58.5 23.5q32 0 63 -18t91 -72l200 -180l-32 -51l-263 114q-86 38 -113.5 62.5t-27.5 62.5zM461 545h424l-217 534z" />
<glyph unicode="&#xc1;" horiz-adv-x="1462" d="M-6 0v61l33 2q93 6 138.5 53t100.5 187l426 1092h74l436 -1067q29 -70 43 -103t33.5 -68.5t30.5 -47.5t34.5 -24.5t43.5 -15.5t59 -6l22 -2v-61h-600v61l27 2q95 7 120 19t25 49q0 20 -7.5 43.5t-35.5 91.5l-77 193h-494l-53 -142q-43 -111 -43 -153q0 -55 37.5 -75 t146.5 -26l39 -2v-61h-559zM461 545h424l-217 534zM596 1567l201 180q60 54 91.5 72t65.5 18t57 -24t23 -58q0 -39 -26 -62.5t-117 -62.5l-262 -114z" />
<glyph unicode="&#xc2;" horiz-adv-x="1462" d="M-6 0v61l33 2q93 6 138.5 53t100.5 187l426 1092h74l436 -1067q29 -70 43 -103t33.5 -68.5t30.5 -47.5t34.5 -24.5t43.5 -15.5t59 -6l22 -2v-61h-600v61l27 2q95 7 120 19t25 49q0 20 -7.5 43.5t-35.5 91.5l-77 193h-494l-53 -142q-43 -111 -43 -153q0 -55 37.5 -75 t146.5 -26l39 -2v-61h-559zM379 1616l303 186h127l303 -186l-33 -68l-342 135l-327 -135zM461 545h424l-217 534z" />
<glyph unicode="&#xc3;" horiz-adv-x="1462" d="M-6 0v61l33 2q93 6 138.5 53t100.5 187l426 1092h74l436 -1067q29 -70 43 -103t33.5 -68.5t30.5 -47.5t34.5 -24.5t43.5 -15.5t59 -6l22 -2v-61h-600v61l27 2q95 7 120 19t25 49q0 20 -7.5 43.5t-35.5 91.5l-77 193h-494l-53 -142q-43 -111 -43 -153q0 -55 37.5 -75 t146.5 -26l39 -2v-61h-559zM391 1622q66 88 115.5 121t114.5 33q57 0 122 -33q61 -33 78 -39t43 -6q38 0 73 19t79 63l57 -49q-63 -84 -117 -119t-120 -35q-32 0 -56.5 7t-66.5 30q-86 45 -121 45q-26 0 -50 -13t-63 -47l-35 -28zM461 545h424l-217 534z" />
<glyph unicode="&#xc4;" horiz-adv-x="1462" d="M-6 0v61l33 2q93 6 138.5 53t100.5 187l426 1092h74l436 -1067q29 -70 43 -103t33.5 -68.5t30.5 -47.5t34.5 -24.5t43.5 -15.5t59 -6l22 -2v-61h-600v61l27 2q95 7 120 19t25 49q0 20 -7.5 43.5t-35.5 91.5l-77 193h-494l-53 -142q-43 -111 -43 -153q0 -55 37.5 -75 t146.5 -26l39 -2v-61h-559zM453 1679q0 50 35.5 85.5t84.5 35.5q53 0 88 -35t35 -88q0 -50 -36 -85.5t-87 -35.5q-50 0 -85 36t-35 87zM461 545h424l-217 534zM766 1679q0 51 35.5 86t85.5 35q52 0 87.5 -35t35.5 -86t-35.5 -87t-85.5 -36q-51 0 -87 36t-36 87z" />
<glyph unicode="&#xc5;" horiz-adv-x="1462" d="M-6 0v61l33 2q93 6 138.5 53t100.5 187l426 1092h74l436 -1067q29 -70 43 -103t33.5 -68.5t30.5 -47.5t34.5 -24.5t43.5 -15.5t59 -6l22 -2v-61h-600v61l27 2q95 7 120 19t25 49q0 20 -7.5 43.5t-35.5 91.5l-77 193h-494l-53 -142q-43 -111 -43 -153q0 -55 37.5 -75 t146.5 -26l39 -2v-61h-559zM461 545h424l-217 534zM549 1679q0 74 54.5 128.5t127.5 54.5q75 0 128.5 -54t53.5 -129t-53.5 -129.5t-128.5 -54.5q-76 0 -129 53.5t-53 130.5zM629 1679q0 -43 29.5 -73.5t72.5 -30.5t74 30.5t31 73.5t-31 74t-74 31q-41 0 -71.5 -31 t-30.5 -74z" />
<glyph unicode="&#xc6;" horiz-adv-x="1921" d="M0 0v61q90 10 140 58t149 215l499 840q37 64 37 88t-27.5 33.5t-97.5 9.5h-26v61h1120l6 -479l-57 -4q-32 109 -59 169.5t-64 106.5q-113 137 -303 137q-92 0 -127 -34.5t-35 -126.5v-379h45q154 0 209 90q25 39 47 149l64 2l2 -551h-66q-40 140 -91 187t-165 47h-45 v-414q0 -69 2.5 -91t13.5 -44q30 -55 132 -55q169 0 295 123.5t161 324.5l62 -4l-17 -520h-1052v61l30 2q39 3 62.5 6.5t43.5 12.5t30 21.5t17 36t9 52t2 74.5v371h-375l-176 -297q-82 -136 -82 -199q0 -43 29 -59t109 -19l65 -2v-61h-516zM625 723h321v424q0 63 -10 102z " />
<glyph unicode="&#xc7;" horiz-adv-x="1374" d="M88 686q0 143 51.5 274.5t137.5 227t205 152.5t249 57q163 0 326 -94q31 -17 49 -17q12 0 21.5 8t43.5 47q0 2 17 19h53l2 -469l-74 -10q-57 229 -161.5 336.5t-268.5 107.5q-201 0 -305 -159.5t-104 -467.5q0 -245 76 -413q110 -244 380 -244q115 0 206.5 53t144.5 150 q49 95 67 278l74 -2q-6 -254 -144 -404t-364 -147l-76 -106q83 14 119 14q83 0 134.5 -43.5t51.5 -114.5q0 -83 -77 -140.5t-187 -57.5q-82 0 -140 35.5t-58 85.5q0 29 20 48t51 19q29 0 48.5 -18.5t19.5 -44.5q0 -20 -23 -43q45 -19 80 -19q67 0 114.5 34t47.5 81t-39 75.5 t-104 28.5t-131 -30l-48 47l113 153q-108 15 -188.5 48.5t-155.5 95.5q-118 97 -186 249t-68 320z" />
<glyph unicode="&#xc8;" horiz-adv-x="1353" d="M63 0v61l29 2q39 3 62.5 6.5t43.5 12.5t30 21.5t17 36t9 52t2 74.5v834q0 46 -2 74.5t-9 52t-17 36t-30 21.5t-43.5 12.5t-62.5 6.5l-29 2v61h1145l11 -473l-58 -2q-63 232 -167.5 324t-305.5 92q-138 0 -180.5 -32.5t-42.5 -135.5v-385h49q141 0 200.5 50.5t82.5 190.5 h57l4 -544h-59q-34 138 -93 187.5t-188 49.5h-53v-446q0 -104 42.5 -141.5t162.5 -37.5q218 0 354 118t174 341h59l-14 -522h-1180zM377 1755q0 35 23.5 58.5t58.5 23.5q32 0 62.5 -18t90.5 -72l201 -180l-33 -51l-262 114q-86 38 -113.5 62.5t-27.5 62.5z" />
<glyph unicode="&#xc9;" horiz-adv-x="1353" d="M63 0v61l29 2q39 3 62.5 6.5t43.5 12.5t30 21.5t17 36t9 52t2 74.5v834q0 46 -2 74.5t-9 52t-17 36t-30 21.5t-43.5 12.5t-62.5 6.5l-29 2v61h1145l11 -473l-58 -2q-63 232 -167.5 324t-305.5 92q-138 0 -180.5 -32.5t-42.5 -135.5v-385h49q141 0 200.5 50.5t82.5 190.5 h57l4 -544h-59q-34 138 -93 187.5t-188 49.5h-53v-446q0 -104 42.5 -141.5t162.5 -37.5q218 0 354 118t174 341h59l-14 -522h-1180zM541 1567l200 180q60 54 92 72t66 18t57 -24t23 -58q0 -39 -26 -62.5t-117 -62.5l-263 -114z" />
<glyph unicode="&#xca;" horiz-adv-x="1353" d="M63 0v61l29 2q39 3 62.5 6.5t43.5 12.5t30 21.5t17 36t9 52t2 74.5v834q0 46 -2 74.5t-9 52t-17 36t-30 21.5t-43.5 12.5t-62.5 6.5l-29 2v61h1145l11 -473l-58 -2q-63 232 -167.5 324t-305.5 92q-138 0 -180.5 -32.5t-42.5 -135.5v-385h49q141 0 200.5 50.5t82.5 190.5 h57l4 -544h-59q-34 138 -93 187.5t-188 49.5h-53v-446q0 -104 42.5 -141.5t162.5 -37.5q218 0 354 118t174 341h59l-14 -522h-1180zM311 1616l303 186h127l303 -186l-32 -68l-342 135l-328 -135z" />
<glyph unicode="&#xcb;" horiz-adv-x="1353" d="M63 0v61l29 2q39 3 62.5 6.5t43.5 12.5t30 21.5t17 36t9 52t2 74.5v834q0 46 -2 74.5t-9 52t-17 36t-30 21.5t-43.5 12.5t-62.5 6.5l-29 2v61h1145l11 -473l-58 -2q-63 232 -167.5 324t-305.5 92q-138 0 -180.5 -32.5t-42.5 -135.5v-385h49q141 0 200.5 50.5t82.5 190.5 h57l4 -544h-59q-34 138 -93 187.5t-188 49.5h-53v-446q0 -104 42.5 -141.5t162.5 -37.5q218 0 354 118t174 341h59l-14 -522h-1180zM385 1679q0 49 35.5 85t85.5 36q52 0 87.5 -35t35.5 -88q0 -50 -36 -85.5t-87 -35.5q-50 0 -85.5 36t-35.5 87zM698 1679q0 51 35.5 86 t85.5 35q52 0 87.5 -35t35.5 -86t-35.5 -87t-85.5 -36q-51 0 -87 36t-36 87z" />
<glyph unicode="&#xcc;" horiz-adv-x="720" d="M59 1755q0 35 23.5 58.5t58.5 23.5q32 0 63 -18t91 -72l201 -180l-33 -51l-262 114q-87 38 -114.5 62.5t-27.5 62.5zM61 0v61l31 2q39 3 62.5 6.5t43.5 12.5t30 21.5t17 36t9 52t2 74.5v834q0 46 -2 74.5t-9 52t-17 36t-30 21.5t-43.5 12.5t-62.5 6.5l-31 2v61h598v-61 l-30 -2q-39 -3 -62.5 -6.5t-43.5 -12.5t-30 -21.5t-17 -36t-9 -52t-2 -74.5v-834q0 -46 2 -74.5t9 -52t17 -36t30 -21.5t43.5 -12.5t62.5 -6.5l30 -2v-61h-598z" />
<glyph unicode="&#xcd;" horiz-adv-x="720" d="M61 0v61l31 2q39 3 62.5 6.5t43.5 12.5t30 21.5t17 36t9 52t2 74.5v834q0 46 -2 74.5t-9 52t-17 36t-30 21.5t-43.5 12.5t-62.5 6.5l-31 2v61h598v-61l-30 -2q-39 -3 -62.5 -6.5t-43.5 -12.5t-30 -21.5t-17 -36t-9 -52t-2 -74.5v-834q0 -46 2 -74.5t9 -52t17 -36 t30 -21.5t43.5 -12.5t62.5 -6.5l30 -2v-61h-598zM223 1567l201 180q60 54 92 72t66 18t57 -24t23 -58q0 -39 -26.5 -62.5t-117.5 -62.5l-262 -114z" />
<glyph unicode="&#xce;" horiz-adv-x="720" d="M8 1616l303 186h127l303 -186l-32 -68l-342 135l-328 -135zM61 0v61l31 2q39 3 62.5 6.5t43.5 12.5t30 21.5t17 36t9 52t2 74.5v834q0 46 -2 74.5t-9 52t-17 36t-30 21.5t-43.5 12.5t-62.5 6.5l-31 2v61h598v-61l-30 -2q-39 -3 -62.5 -6.5t-43.5 -12.5t-30 -21.5t-17 -36 t-9 -52t-2 -74.5v-834q0 -46 2 -74.5t9 -52t17 -36t30 -21.5t43.5 -12.5t62.5 -6.5l30 -2v-61h-598z" />
<glyph unicode="&#xcf;" horiz-adv-x="720" d="M61 0v61l31 2q39 3 62.5 6.5t43.5 12.5t30 21.5t17 36t9 52t2 74.5v834q0 46 -2 74.5t-9 52t-17 36t-30 21.5t-43.5 12.5t-62.5 6.5l-31 2v61h598v-61l-30 -2q-39 -3 -62.5 -6.5t-43.5 -12.5t-30 -21.5t-17 -36t-9 -52t-2 -74.5v-834q0 -46 2 -74.5t9 -52t17 -36 t30 -21.5t43.5 -12.5t62.5 -6.5l30 -2v-61h-598zM96 1679q0 49 36 85t85 36q53 0 88 -35t35 -88q0 -50 -36 -85.5t-87 -35.5q-50 0 -85.5 36t-35.5 87zM381 1679q0 51 35.5 86t85.5 35q52 0 87.5 -35t35.5 -86t-35.5 -87t-85.5 -36q-51 0 -87 36t-36 87z" />
<glyph unicode="&#xd0;" horiz-adv-x="1466" d="M66 0v61l26 2q47 3 73 9t46.5 17t29 35t12 55.5t3.5 86.5v420h-190v82h190v332q0 55 -3.5 86.5t-12 55.5t-29 35t-46.5 17t-73 9l-26 2v61h598q173 0 294.5 -44t221.5 -142q198 -198 198 -494q0 -288 -184 -481q-100 -106 -228.5 -155.5t-301.5 -49.5h-598zM465 256 q0 -120 34 -152t160 -32q122 0 199.5 20t128.5 64q78 69 114 194.5t36 331.5q0 232 -45.5 364t-146 191t-277.5 59q-142 0 -179 -45q-15 -18 -19.5 -44t-4.5 -87v-352h366v-82h-366v-430z" />
<glyph unicode="&#xd1;" horiz-adv-x="1466" d="M43 0v61l43 2q101 6 137 68q16 27 21.5 59.5t5.5 100.5v921q-34 56 -66.5 74.5t-95.5 18.5h-45v61h350l756 -1028v743q0 123 -35 170t-127 52l-39 2v61h477v-61l-36 -2q-94 -5 -126 -49t-32 -173v-1095h-88l-811 1116v-811q0 -69 6.5 -100.5t26.5 -59.5q45 -62 151 -68 l41 -2v-61h-514zM393 1622q66 88 115.5 121t114.5 33q57 0 122 -33q61 -33 78 -39t43 -6q38 0 73 19t79 63l57 -49q-63 -84 -117 -119t-120 -35q-32 0 -56.5 7t-66.5 30q-86 45 -121 45q-26 0 -50 -13t-63 -47l-35 -28z" />
<glyph unicode="&#xd2;" horiz-adv-x="1437" d="M88 676q0 146 50.5 279.5t136.5 230t204 154t248 57.5q173 0 315.5 -92t224 -252t81.5 -355q0 -130 -48 -263.5t-133 -239.5q-186 -226 -452 -226q-267 0 -457 236q-170 208 -170 471zM330 682q0 -332 108 -496q49 -76 116.5 -110.5t166.5 -34.5q197 0 291 147.5 t94 456.5q0 358 -88.5 519t-286.5 161q-216 0 -309 -166q-92 -165 -92 -477zM418 1755q0 35 23.5 58.5t58.5 23.5q32 0 62.5 -18t90.5 -72l201 -180l-33 -51l-262 114q-86 38 -113.5 62.5t-27.5 62.5z" />
<glyph unicode="&#xd3;" horiz-adv-x="1437" d="M88 676q0 146 50.5 279.5t136.5 230t204 154t248 57.5q173 0 315.5 -92t224 -252t81.5 -355q0 -130 -48 -263.5t-133 -239.5q-186 -226 -452 -226q-267 0 -457 236q-170 208 -170 471zM330 682q0 -332 108 -496q49 -76 116.5 -110.5t166.5 -34.5q197 0 291 147.5 t94 456.5q0 358 -88.5 519t-286.5 161q-216 0 -309 -166q-92 -165 -92 -477zM582 1567l200 180q60 54 92 72t66 18t57 -24t23 -58q0 -39 -26 -62.5t-117 -62.5l-263 -114z" />
<glyph unicode="&#xd4;" horiz-adv-x="1437" d="M88 676q0 146 50.5 279.5t136.5 230t204 154t248 57.5q173 0 315.5 -92t224 -252t81.5 -355q0 -130 -48 -263.5t-133 -239.5q-186 -226 -452 -226q-267 0 -457 236q-170 208 -170 471zM330 682q0 -332 108 -496q49 -76 116.5 -110.5t166.5 -34.5q197 0 291 147.5 t94 456.5q0 358 -88.5 519t-286.5 161q-216 0 -309 -166q-92 -165 -92 -477zM365 1616l303 186h127l303 -186l-33 -68l-342 135l-328 -135z" />
<glyph unicode="&#xd5;" horiz-adv-x="1437" d="M88 676q0 146 50.5 279.5t136.5 230t204 154t248 57.5q173 0 315.5 -92t224 -252t81.5 -355q0 -130 -48 -263.5t-133 -239.5q-186 -226 -452 -226q-267 0 -457 236q-170 208 -170 471zM330 682q0 -332 108 -496q49 -76 116.5 -110.5t166.5 -34.5q197 0 291 147.5 t94 456.5q0 358 -88.5 519t-286.5 161q-216 0 -309 -166q-92 -165 -92 -477zM377 1622q66 88 115.5 121t113.5 33q58 0 123 -33q61 -33 78 -39t43 -6q38 0 72 18.5t79 63.5l58 -49q-63 -83 -117.5 -118.5t-120.5 -35.5q-32 0 -56.5 7t-66.5 30q-86 45 -120 45q-26 0 -50 -13 t-63 -47l-35 -28z" />
<glyph unicode="&#xd6;" horiz-adv-x="1437" d="M88 676q0 146 50.5 279.5t136.5 230t204 154t248 57.5q173 0 315.5 -92t224 -252t81.5 -355q0 -130 -48 -263.5t-133 -239.5q-186 -226 -452 -226q-267 0 -457 236q-170 208 -170 471zM330 682q0 -332 108 -496q49 -76 116.5 -110.5t166.5 -34.5q197 0 291 147.5 t94 456.5q0 358 -88.5 519t-286.5 161q-216 0 -309 -166q-92 -165 -92 -477zM440 1679q0 49 36 85t85 36q53 0 88 -35t35 -88q0 -50 -36 -85.5t-87 -35.5q-50 0 -85.5 36t-35.5 87zM754 1679q0 51 35 86t85 35q52 0 87.5 -35t35.5 -86t-35 -87t-85 -36q-51 0 -87 36t-36 87z " />
<glyph unicode="&#xd7;" d="M174 375l309 307l-309 309l70 70l309 -309l307 309l70 -70l-307 -309l307 -307l-70 -70l-307 309l-309 -309z" />
<glyph unicode="&#xd8;" horiz-adv-x="1435" d="M88 676q0 146 51 279.5t137 230t204.5 154t248.5 57.5q98 0 173.5 -23t152.5 -76l137 215h88l-164 -268q232 -210 232 -536q0 -316 -213 -543q-185 -197 -420 -197q-88 0 -158 24t-160 87l-155 -252h-92l186 301q-248 230 -248 547zM330 688q0 -273 76 -444l591 956 q-54 69 -114.5 97t-155.5 28q-203 0 -300 -156t-97 -481zM453 168q53 -69 113.5 -98t152.5 -29q198 0 292.5 152t94.5 471q0 311 -68 456z" />
<glyph unicode="&#xd9;" horiz-adv-x="1462" d="M25 1305v61h608v-61l-35 -2q-76 -4 -108 -19.5t-44 -54.5t-12 -129v-688q0 -111 17.5 -171.5t62.5 -105.5q44 -44 110.5 -69t141.5 -25q112 0 203 46t139 124q31 53 42 106.5t11 151.5v608q0 74 -9 113t-34 67q-21 24 -48.5 33.5t-86.5 12.5l-33 2v61h492v-61l-37 -2 q-97 -6 -135 -66q-16 -27 -21.5 -59.5t-5.5 -100.5v-608q0 -137 -23.5 -213.5t-86.5 -140.5q-140 -146 -390 -146q-291 0 -438 170q-48 58 -64 123.5t-16 206.5v631q0 68 -5 103.5t-24.5 58.5t-48.5 30.5t-86 10.5zM430 1755q0 35 23.5 58.5t58.5 23.5q32 0 63 -18t91 -72 l200 -180l-32 -51l-263 114q-86 38 -113.5 62.5t-27.5 62.5z" />
<glyph unicode="&#xda;" horiz-adv-x="1462" d="M25 1305v61h608v-61l-35 -2q-76 -4 -108 -19.5t-44 -54.5t-12 -129v-688q0 -111 17.5 -171.5t62.5 -105.5q44 -44 110.5 -69t141.5 -25q112 0 203 46t139 124q31 53 42 106.5t11 151.5v608q0 74 -9 113t-34 67q-21 24 -48.5 33.5t-86.5 12.5l-33 2v61h492v-61l-37 -2 q-97 -6 -135 -66q-16 -27 -21.5 -59.5t-5.5 -100.5v-608q0 -137 -23.5 -213.5t-86.5 -140.5q-140 -146 -390 -146q-291 0 -438 170q-48 58 -64 123.5t-16 206.5v631q0 68 -5 103.5t-24.5 58.5t-48.5 30.5t-86 10.5zM608 1567l201 180q60 54 92 72t66 18t57 -24t23 -58 q0 -39 -26.5 -62.5t-117.5 -62.5l-262 -114z" />
<glyph unicode="&#xdb;" horiz-adv-x="1462" d="M25 1305v61h608v-61l-35 -2q-76 -4 -108 -19.5t-44 -54.5t-12 -129v-688q0 -111 17.5 -171.5t62.5 -105.5q44 -44 110.5 -69t141.5 -25q112 0 203 46t139 124q31 53 42 106.5t11 151.5v608q0 74 -9 113t-34 67q-21 24 -48.5 33.5t-86.5 12.5l-33 2v61h492v-61l-37 -2 q-97 -6 -135 -66q-16 -27 -21.5 -59.5t-5.5 -100.5v-608q0 -137 -23.5 -213.5t-86.5 -140.5q-140 -146 -390 -146q-291 0 -438 170q-48 58 -64 123.5t-16 206.5v631q0 68 -5 103.5t-24.5 58.5t-48.5 30.5t-86 10.5zM365 1616l303 186h127l303 -186l-33 -68l-342 135 l-328 -135z" />
<glyph unicode="&#xdc;" horiz-adv-x="1462" d="M25 1305v61h608v-61l-35 -2q-76 -4 -108 -19.5t-44 -54.5t-12 -129v-688q0 -111 17.5 -171.5t62.5 -105.5q44 -44 110.5 -69t141.5 -25q112 0 203 46t139 124q31 53 42 106.5t11 151.5v608q0 74 -9 113t-34 67q-21 24 -48.5 33.5t-86.5 12.5l-33 2v61h492v-61l-37 -2 q-97 -6 -135 -66q-16 -27 -21.5 -59.5t-5.5 -100.5v-608q0 -137 -23.5 -213.5t-86.5 -140.5q-140 -146 -390 -146q-291 0 -438 170q-48 58 -64 123.5t-16 206.5v631q0 68 -5 103.5t-24.5 58.5t-48.5 30.5t-86 10.5zM487 1679q0 49 35.5 85t85.5 36q52 0 87.5 -35t35.5 -88 q0 -50 -36 -85.5t-87 -35.5q-50 0 -85.5 36t-35.5 87zM801 1679q0 51 35.5 86t85.5 35q52 0 87 -35t35 -86t-35 -87t-85 -36q-51 0 -87 36t-36 87z" />
<glyph unicode="&#xdd;" horiz-adv-x="1243" d="M-14 1305v61h587v-61l-51 -2q-65 -3 -90.5 -17t-25.5 -47q0 -42 49 -133l221 -420l205 358q77 138 77 189q0 37 -29 54.5t-95 17.5h-52v61h475v-61h-32q-41 0 -66.5 -7.5t-56.5 -35t-63 -78t-81 -140.5l-243 -454v-324q0 -55 4 -87.5t13 -56.5t29 -35.5t46.5 -17 t71.5 -6.5l57 -2v-61h-651v61l57 2q45 1 71.5 6.5t46.5 17t29 35.5t13 56.5t4 87.5v324l-281 516q-68 125 -103 159t-104 38zM485 1567l201 180q60 54 92 72t66 18t57 -24t23 -58q0 -39 -26.5 -62.5t-117.5 -62.5l-262 -114z" />
<glyph unicode="&#xde;" horiz-adv-x="1267" d="M63 0v61l29 2q39 3 62.5 6.5t43.5 12.5t30 21.5t17 36t9 52t2 74.5v834q0 46 -2 74.5t-9 52t-17 36t-30 21.5t-43.5 12.5t-62.5 6.5l-29 2v61h603v-61l-37 -2q-99 -6 -131.5 -37.5t-32.5 -124.5v-41h258q212 0 330 -82q73 -49 114 -124t41 -159q0 -102 -62 -192 t-165 -137q-89 -41 -246 -41h-270v-99q0 -68 5 -103.5t24.5 -58.5t48.5 -30.5t86 -10.5l37 -2v-61h-603zM465 430h221q154 0 225.5 70t71.5 219q0 321 -309 321q-139 0 -178 -39q-19 -21 -25 -52t-6 -113v-406z" />
<glyph unicode="&#xdf;" horiz-adv-x="1269" d="M76 0v61l33 2q41 2 63 8.5t36.5 25.5t18.5 48t4 82v647h-155v68h155q3 90 26 155.5t73 125.5q62 74 153 115.5t191 41.5q170 0 297 -97.5t127 -227.5q0 -97 -66.5 -159.5t-204.5 -94.5l-43 -10q-43 -11 -58 -20t-15 -26q0 -23 24 -39.5t99 -46.5l63 -24 q152 -58 224.5 -139.5t72.5 -192.5q0 -133 -100 -228t-238 -95q-61 0 -95.5 11.5t-119.5 61.5q-8 4 -16 4q-17 0 -27 -30l-10 -27h-68l2 348h66q26 -148 96 -226.5t174 -78.5q82 0 139.5 54.5t57.5 131.5q0 72 -72 138q-48 43 -158 88l-61 24q-191 74 -191 203q0 55 27 84.5 t98 56.5q55 19 64 21q158 52 158 217q0 106 -70 181t-168 75q-56 0 -112 -29t-91 -76q-32 -43 -44.5 -95.5t-12.5 -149.5v-967h-346z" />
<glyph unicode="&#xe0;" horiz-adv-x="1069" d="M70 213q0 55 33 107.5t90 87.5q156 100 481 184v86q0 129 -41 170q-49 49 -170 49q-120 0 -193 -51q41 -10 63.5 -40t22.5 -73q0 -50 -34.5 -83.5t-85.5 -33.5q-52 0 -88.5 34.5t-36.5 82.5q0 101 114 167.5t289 66.5q106 0 186.5 -29.5t120.5 -83.5q43 -55 43 -221v-414 q0 -66 13 -91.5t45 -25.5q35 0 53 32.5t26 109.5l64 -2v-19q0 -104 -57 -168.5t-148 -64.5q-82 0 -133 57q-29 34 -45 117q-94 -184 -305 -184q-133 0 -220 66t-87 167zM219 1339q0 35 23.5 58.5t58.5 23.5q32 0 61.5 -17t92.5 -73l200 -180l-32 -51l-263 114 q-85 36 -113 61t-28 64zM287 219q0 -67 39.5 -109t101.5 -42q61 0 114 31t85 87q27 45 37 95.5t10 142.5v96q-387 -105 -387 -301z" />
<glyph unicode="&#xe1;" horiz-adv-x="1069" d="M70 213q0 55 33 107.5t90 87.5q156 100 481 184v86q0 129 -41 170q-49 49 -170 49q-120 0 -193 -51q41 -10 63.5 -40t22.5 -73q0 -50 -34.5 -83.5t-85.5 -33.5q-52 0 -88.5 34.5t-36.5 82.5q0 101 114 167.5t289 66.5q106 0 186.5 -29.5t120.5 -83.5q43 -55 43 -221v-414 q0 -66 13 -91.5t45 -25.5q35 0 53 32.5t26 109.5l64 -2v-19q0 -104 -57 -168.5t-148 -64.5q-82 0 -133 57q-29 34 -45 117q-94 -184 -305 -184q-133 0 -220 66t-87 167zM287 219q0 -67 39.5 -109t101.5 -42q61 0 114 31t85 87q27 45 37 95.5t10 142.5v96 q-387 -105 -387 -301zM397 1151l201 180q60 55 92 72.5t66 17.5t57 -24t23 -58q0 -39 -26.5 -62.5t-117.5 -62.5l-262 -114z" />
<glyph unicode="&#xe2;" horiz-adv-x="1069" d="M70 213q0 55 33 107.5t90 87.5q156 100 481 184v86q0 129 -41 170q-49 49 -170 49q-120 0 -193 -51q41 -10 63.5 -40t22.5 -73q0 -50 -34.5 -83.5t-85.5 -33.5q-52 0 -88.5 34.5t-36.5 82.5q0 101 114 167.5t289 66.5q106 0 186.5 -29.5t120.5 -83.5q43 -55 43 -221v-414 q0 -66 13 -91.5t45 -25.5q35 0 53 32.5t26 109.5l64 -2v-19q0 -104 -57 -168.5t-148 -64.5q-82 0 -133 57q-29 34 -45 117q-94 -184 -305 -184q-133 0 -220 66t-87 167zM168 1200l303 184h127l303 -184l-33 -70l-342 136l-327 -136zM287 219q0 -67 39.5 -109t101.5 -42 q61 0 114 31t85 87q27 45 37 95.5t10 142.5v96q-387 -105 -387 -301z" />
<glyph unicode="&#xe3;" horiz-adv-x="1069" d="M70 213q0 55 33 107.5t90 87.5q156 100 481 184v86q0 129 -41 170q-49 49 -170 49q-120 0 -193 -51q41 -10 63.5 -40t22.5 -73q0 -50 -34.5 -83.5t-85.5 -33.5q-52 0 -88.5 34.5t-36.5 82.5q0 101 114 167.5t289 66.5q106 0 186.5 -29.5t120.5 -83.5q43 -55 43 -221v-414 q0 -66 13 -91.5t45 -25.5q35 0 53 32.5t26 109.5l64 -2v-19q0 -104 -57 -168.5t-148 -64.5q-82 0 -133 57q-29 34 -45 117q-94 -184 -305 -184q-133 0 -220 66t-87 167zM193 1206q66 88 115.5 121t113.5 33q58 0 123 -33q61 -33 78 -39t43 -6q38 0 72 18.5t79 63.5l57 -49 q-63 -84 -117 -119t-120 -35q-32 0 -56.5 7t-66.5 30q-86 45 -121 45q-26 0 -50 -12.5t-62 -46.5l-35 -29zM287 219q0 -67 39.5 -109t101.5 -42q61 0 114 31t85 87q27 45 37 95.5t10 142.5v96q-387 -105 -387 -301z" />
<glyph unicode="&#xe4;" horiz-adv-x="1069" d="M70 213q0 55 33 107.5t90 87.5q156 100 481 184v86q0 129 -41 170q-49 49 -170 49q-120 0 -193 -51q41 -10 63.5 -40t22.5 -73q0 -50 -34.5 -83.5t-85.5 -33.5q-52 0 -88.5 34.5t-36.5 82.5q0 101 114 167.5t289 66.5q106 0 186.5 -29.5t120.5 -83.5q43 -55 43 -221v-414 q0 -66 13 -91.5t45 -25.5q35 0 53 32.5t26 109.5l64 -2v-19q0 -104 -57 -168.5t-148 -64.5q-82 0 -133 57q-29 34 -45 117q-94 -184 -305 -184q-133 0 -220 66t-87 167zM219 1266q0 49 35.5 84.5t85.5 35.5q53 0 88 -35t35 -87q0 -50 -36 -85.5t-87 -35.5q-50 0 -85.5 36 t-35.5 87zM287 219q0 -67 39.5 -109t101.5 -42q61 0 114 31t85 87q27 45 37 95.5t10 142.5v96q-387 -105 -387 -301zM532 1266q0 51 35.5 85.5t85.5 34.5q52 0 87.5 -34.5t35.5 -85.5t-35.5 -87t-85.5 -36q-51 0 -87 36t-36 87z" />
<glyph unicode="&#xe5;" horiz-adv-x="1069" d="M70 213q0 55 33 107.5t90 87.5q156 100 481 184v86q0 129 -41 170q-49 49 -170 49q-120 0 -193 -51q41 -10 63.5 -40t22.5 -73q0 -50 -34.5 -83.5t-85.5 -33.5q-52 0 -88.5 34.5t-36.5 82.5q0 101 114 167.5t289 66.5q106 0 186.5 -29.5t120.5 -83.5q43 -55 43 -221v-414 q0 -66 13 -91.5t45 -25.5q35 0 53 32.5t26 109.5l64 -2v-19q0 -104 -57 -168.5t-148 -64.5q-82 0 -133 57q-29 34 -45 117q-94 -184 -305 -184q-133 0 -220 66t-87 167zM287 219q0 -67 39.5 -109t101.5 -42q61 0 114 31t85 87q27 45 37 95.5t10 142.5v96 q-387 -105 -387 -301zM334 1268q0 74 54 128t128 54q75 0 128.5 -53.5t53.5 -128.5t-53.5 -130t-128.5 -55q-76 0 -129 54t-53 131zM414 1268q0 -43 30 -74t72 -31q43 0 74 31t31 74t-31 73.5t-74 30.5q-41 0 -71.5 -30.5t-30.5 -73.5z" />
<glyph unicode="&#xe6;" horiz-adv-x="1560" d="M68 203q0 256 581 368v95q0 103 -28 145q-53 82 -183 82q-93 0 -164 -49q84 -27 84 -117q0 -50 -33.5 -83.5t-82.5 -33.5q-51 0 -84 35.5t-33 89.5q0 94 106 163t252 69q193 0 293 -127q120 129 297 129t295.5 -129t118.5 -322q0 -23 -2 -39h-645q5 -104 20 -168.5 t47 -115.5q81 -134 228 -134q85 0 152 43.5t138 143.5l58 -41q-76 -118 -166 -170.5t-213 -52.5q-224 0 -348 176q-66 -96 -155 -139.5t-222 -43.5q-142 0 -226.5 61.5t-84.5 164.5zM268 213q0 -69 52 -115.5t129 -46.5q42 0 75 11.5t55 34.5t37 51.5t23 68.5t11 80.5 t3 91.5v31l-2 82q-130 -30 -215 -71t-126.5 -95t-41.5 -123zM842 547h434v24q0 62 -12 119t-36 105.5t-65.5 77t-95.5 28.5q-65 0 -115 -42.5t-78.5 -123t-31.5 -188.5z" />
<glyph unicode="&#xe7;" horiz-adv-x="976" d="M82 469q0 134 67.5 249.5t183 184t249.5 68.5q133 0 225 -66.5t92 -163.5q0 -60 -35.5 -101.5t-89.5 -41.5q-44 0 -75 32t-31 79q0 43 28 73.5t66 30.5q14 0 41 -8q-61 98 -205 98t-220.5 -109t-76.5 -313t76.5 -319t212.5 -115q80 0 146.5 42.5t133.5 137.5l50 -34 q-122 -215 -355 -224l-67 -96q77 14 110 14q77 0 124.5 -40.5t47.5 -106.5q0 -77 -71 -130.5t-174 -53.5q-75 0 -130 33t-55 79q0 26 19.5 44t48.5 18q26 0 43.5 -17.5t17.5 -42.5q0 -18 -18 -39q39 -16 71 -16q63 0 106.5 31.5t43.5 77.5q0 43 -36 69.5t-97 26.5 q-58 0 -121 -31l-43 43l102 143q-173 31 -289 172t-116 322z" />
<glyph unicode="&#xe8;" horiz-adv-x="1013" d="M82 475q0 129 61 242t164.5 180.5t222.5 67.5q106 0 195.5 -53t144.5 -150q63 -111 68 -283h-643q-2 -12 -2 -30q0 -189 104 -314q66 -84 187 -84q81 0 141.5 39.5t144.5 145.5l58 -35q-82 -122 -166 -174t-199 -52q-129 0 -240 67.5t-176 182.5t-65 250zM205 1339 q0 35 23.5 58.5t58.5 23.5q32 0 60.5 -17t92.5 -73l201 -180l-33 -51l-262 114q-85 36 -113 61t-28 64zM297 547h432q-1 173 -53 262.5t-150 89.5q-101 0 -162 -93t-67 -259z" />
<glyph unicode="&#xe9;" horiz-adv-x="1013" d="M82 475q0 129 61 242t164.5 180.5t222.5 67.5q106 0 195.5 -53t144.5 -150q63 -111 68 -283h-643q-2 -12 -2 -30q0 -189 104 -314q66 -84 187 -84q81 0 141.5 39.5t144.5 145.5l58 -35q-82 -122 -166 -174t-199 -52q-129 0 -240 67.5t-176 182.5t-65 250zM297 547h432 q-1 173 -53 262.5t-150 89.5q-101 0 -162 -93t-67 -259zM397 1151l201 180q60 55 92 72.5t66 17.5t57 -24t23 -58q0 -39 -26.5 -62.5t-117.5 -62.5l-262 -114z" />
<glyph unicode="&#xea;" horiz-adv-x="1013" d="M82 475q0 129 61 242t164.5 180.5t222.5 67.5q106 0 195.5 -53t144.5 -150q63 -111 68 -283h-643q-2 -12 -2 -30q0 -189 104 -314q66 -84 187 -84q81 0 141.5 39.5t144.5 145.5l58 -35q-82 -122 -166 -174t-199 -52q-129 0 -240 67.5t-176 182.5t-65 250zM168 1200 l303 184h127l303 -184l-33 -70l-342 136l-327 -136zM297 547h432q-1 173 -53 262.5t-150 89.5q-101 0 -162 -93t-67 -259z" />
<glyph unicode="&#xeb;" horiz-adv-x="1013" d="M82 475q0 129 61 242t164.5 180.5t222.5 67.5q106 0 195.5 -53t144.5 -150q63 -111 68 -283h-643q-2 -12 -2 -30q0 -189 104 -314q66 -84 187 -84q81 0 141.5 39.5t144.5 145.5l58 -35q-82 -122 -166 -174t-199 -52q-129 0 -240 67.5t-176 182.5t-65 250zM256 1266 q0 49 35.5 84.5t85.5 35.5q53 0 88 -35t35 -87q0 -50 -36 -85.5t-87 -35.5q-50 0 -85.5 36t-35.5 87zM297 547h432q-1 173 -53 262.5t-150 89.5q-101 0 -162 -93t-67 -259zM569 1266q0 51 35.5 85.5t85.5 34.5q52 0 87.5 -34.5t35.5 -85.5t-35.5 -87t-85.5 -36q-51 0 -87 36 t-36 87z" />
<glyph unicode="&#xec;" horiz-adv-x="630" d="M16 1339q0 35 23.5 58.5t58.5 23.5q32 0 61.5 -17t92.5 -73l201 -180l-33 -51l-262 114q-86 37 -114 61.5t-28 63.5zM72 0v61l39 2q41 2 63 8.5t36.5 25.5t18.5 48t4 82v488q0 53 -4 82t-18.5 48t-36.5 25.5t-63 8.5l-33 2v61l346 8v-723q0 -70 9.5 -102.5t34 -45.5 t79.5 -16l39 -2v-61h-514z" />
<glyph unicode="&#xed;" horiz-adv-x="630" d="M70 0v61l39 2q41 2 63 8.5t36.5 25.5t18.5 48t4 82v488q0 53 -4 82t-18.5 48t-36.5 25.5t-63 8.5l-33 2v61l346 8v-723q0 -70 9.5 -102.5t34 -45.5t79.5 -16l39 -2v-61h-514zM178 1151l201 180q60 55 92 72.5t66 17.5q33 0 56 -24t23 -58q0 -39 -26 -62.5t-117 -62.5 l-262 -114z" />
<glyph unicode="&#xee;" horiz-adv-x="630" d="M-51 1200l303 184h127l303 -184l-33 -70l-342 136l-327 -136zM70 0v61l39 2q41 2 63 8.5t36.5 25.5t18.5 48t4 82v488q0 53 -4 82t-18.5 48t-36.5 25.5t-63 8.5l-33 2v61l346 8v-723q0 -70 9.5 -102.5t34 -45.5t79.5 -16l39 -2v-61h-514z" />
<glyph unicode="&#xef;" horiz-adv-x="630" d="M39 1266q0 49 35.5 84.5t85.5 35.5q53 0 88 -35t35 -87q0 -50 -36 -85.5t-87 -35.5q-50 0 -85.5 36t-35.5 87zM72 0v61l39 2q41 2 63 8.5t36.5 25.5t18.5 48t4 82v488q0 53 -4 82t-18.5 48t-36.5 25.5t-63 8.5l-33 2v61l346 8v-723q0 -70 9.5 -102.5t34 -45.5t79.5 -16 l39 -2v-61h-514zM332 1266q0 51 35.5 85.5t85.5 34.5q52 0 87 -34.5t35 -85.5t-35 -87t-85 -36q-51 0 -87 36t-36 87z" />
<glyph unicode="&#xf0;" horiz-adv-x="1112" d="M82 467q0 129 65.5 243t175.5 182.5t234 68.5q82 0 158 -43q-37 101 -98.5 181t-139.5 130l-233 -152l-39 58l198 133q-137 57 -307 73l47 54q95 -5 143.5 -13t164.5 -41l28 -8l234 156l41 -59l-193 -130q96 -46 164 -100.5t127 -132.5q85 -115 132.5 -266.5t47.5 -304.5 q0 -265 -184 -412q-126 -102 -285 -102q-199 0 -340 142t-141 343zM301 469q0 -204 67.5 -315t192.5 -111q119 0 184.5 107.5t65.5 302.5q0 212 -65.5 329t-184.5 117q-126 0 -193 -110.5t-67 -319.5z" />
<glyph unicode="&#xf1;" horiz-adv-x="1218" d="M78 0v61l31 2q41 2 63 8.5t36.5 25.5t18.5 48t4 82v488q0 101 -21.5 129.5t-100.5 34.5l-27 2v61l334 8l-2 -221q119 232 334 232q69 0 127.5 -27t93.5 -74q34 -44 46.5 -97.5t12.5 -152.5v-383q0 -101 22 -129.5t101 -34.5l27 -2v-61h-340v610q0 128 -29 187 q-17 34 -53.5 55.5t-77.5 21.5q-67 0 -127 -49t-94 -131q-35 -85 -35 -282v-185q0 -101 23 -131t100 -33l55 -2v-61h-522zM268 1206q66 88 115.5 121t114.5 33q58 0 123 -33q61 -33 78 -39t42 -6q38 0 73 19t79 63l57 -49q-63 -84 -117 -119t-120 -35q-32 0 -56.5 7 t-66.5 30q-86 45 -121 45q-26 0 -50.5 -12.5t-62.5 -46.5l-34 -29z" />
<glyph unicode="&#xf2;" horiz-adv-x="1110" d="M82 465q0 87 35.5 176t97.5 160q145 160 340 160q201 0 340 -160q63 -70 98 -159t35 -177q0 -129 -65 -240.5t-175.5 -177t-238.5 -65.5q-122 0 -230 67t-172.5 178.5t-64.5 237.5zM254 1339q0 35 23.5 58.5t58.5 23.5q32 0 60.5 -17t92.5 -73l201 -180l-33 -51l-262 114 q-85 36 -113 61t-28 64zM301 463q0 -207 64 -313.5t188 -106.5q256 0 256 420q0 215 -64.5 325.5t-189.5 110.5t-189.5 -110.5t-64.5 -325.5z" />
<glyph unicode="&#xf3;" horiz-adv-x="1110" d="M82 465q0 87 35.5 176t97.5 160q145 160 340 160q201 0 340 -160q63 -70 98 -159t35 -177q0 -129 -65 -240.5t-175.5 -177t-238.5 -65.5q-122 0 -230 67t-172.5 178.5t-64.5 237.5zM301 463q0 -207 64 -313.5t188 -106.5q256 0 256 420q0 215 -64.5 325.5t-189.5 110.5 t-189.5 -110.5t-64.5 -325.5zM418 1151l200 180q60 55 92 72.5t66 17.5t57 -24t23 -58q0 -39 -26 -62.5t-117 -62.5l-262 -114z" />
<glyph unicode="&#xf4;" horiz-adv-x="1110" d="M82 465q0 87 35.5 176t97.5 160q145 160 340 160q201 0 340 -160q63 -70 98 -159t35 -177q0 -129 -65 -240.5t-175.5 -177t-238.5 -65.5q-122 0 -230 67t-172.5 178.5t-64.5 237.5zM195 1200l303 184h127l303 -184l-33 -70l-342 136l-328 -136zM301 463q0 -207 64 -313.5 t188 -106.5q256 0 256 420q0 215 -64.5 325.5t-189.5 110.5t-189.5 -110.5t-64.5 -325.5z" />
<glyph unicode="&#xf5;" horiz-adv-x="1110" d="M82 465q0 87 35.5 176t97.5 160q145 160 340 160q201 0 340 -160q63 -70 98 -159t35 -177q0 -129 -65 -240.5t-175.5 -177t-238.5 -65.5q-122 0 -230 67t-172.5 178.5t-64.5 237.5zM213 1206q66 88 115.5 121t113.5 33q58 0 123 -33q61 -33 78 -39t43 -6q38 0 73 19 t79 63l57 -49q-63 -83 -117.5 -118.5t-120.5 -35.5q-32 0 -56 7t-66 30q-86 45 -121 45q-26 0 -50.5 -12.5t-62.5 -46.5l-35 -29zM301 463q0 -207 64 -313.5t188 -106.5q256 0 256 420q0 215 -64.5 325.5t-189.5 110.5t-189.5 -110.5t-64.5 -325.5z" />
<glyph unicode="&#xf6;" horiz-adv-x="1110" d="M82 465q0 87 35.5 176t97.5 160q145 160 340 160q201 0 340 -160q63 -70 98 -159t35 -177q0 -129 -65 -240.5t-175.5 -177t-238.5 -65.5q-122 0 -230 67t-172.5 178.5t-64.5 237.5zM276 1266q0 49 35.5 84.5t85.5 35.5q53 0 88 -35t35 -87q0 -50 -36 -85.5t-87 -35.5 q-50 0 -85.5 36t-35.5 87zM301 463q0 -207 64 -313.5t188 -106.5q256 0 256 420q0 215 -64.5 325.5t-189.5 110.5t-189.5 -110.5t-64.5 -325.5zM590 1266q0 51 35.5 85.5t85.5 34.5q52 0 87.5 -34.5t35.5 -85.5t-35.5 -87t-85.5 -36q-51 0 -87 36t-36 87z" />
<glyph unicode="&#xf7;" d="M109 633v98h890v-98h-890zM442 350q0 46 33.5 78.5t79.5 32.5q44 0 76.5 -33.5t32.5 -77.5q0 -46 -32.5 -78t-78.5 -32t-78.5 32t-32.5 78zM442 1022q0 46 33.5 78.5t79.5 32.5q44 0 76.5 -33.5t32.5 -77.5q0 -46 -32.5 -78.5t-78.5 -32.5t-78.5 32.5t-32.5 78.5z" />
<glyph unicode="&#xf8;" horiz-adv-x="1124" d="M82 469q0 100 38 192t101.5 159t151 107t182.5 40q74 0 136 -21t132 -69l125 174h94l-161 -224q78 -80 111.5 -156.5t33.5 -176.5q0 -136 -64 -252t-173.5 -184t-237.5 -68q-116 0 -232 65l-131 -182h-92l164 225q-178 152 -178 371zM301 479q0 -163 37 -270l416 571 q-37 66 -84 95.5t-113 29.5q-126 0 -191 -108t-65 -318zM379 135q63 -84 168 -84q132 0 196 105.5t64 324.5q0 104 -23 213z" />
<glyph unicode="&#xf9;" horiz-adv-x="1200" d="M55 881v61l326 8v-643q0 -68 7 -102t26 -64q20 -31 53 -50t68 -19q57 0 112.5 34t93.5 93q34 53 47 109.5t13 150.5v256q0 70 -9.5 102.5t-34 45.5t-79.5 16l-35 2v61l348 8v-723q0 -70 9.5 -102.5t34 -45.5t79.5 -16l31 -2v-61l-326 -10v237q-26 -58 -48.5 -90 t-57.5 -63q-102 -86 -221 -86q-72 0 -138 27t-104 73q-34 42 -47 100t-13 174v353q0 113 -30 139q-9 9 -27 13.5t-78 13.5zM299 1339q0 35 23.5 58.5t58.5 23.5q32 0 61.5 -17t92.5 -73l200 -180l-33 -51l-262 114q-85 36 -113 61t-28 64z" />
<glyph unicode="&#xfa;" horiz-adv-x="1200" d="M55 881v61l326 8v-643q0 -68 7 -102t26 -64q20 -31 53 -50t68 -19q57 0 112.5 34t93.5 93q34 53 47 109.5t13 150.5v256q0 70 -9.5 102.5t-34 45.5t-79.5 16l-35 2v61l348 8v-723q0 -70 9.5 -102.5t34 -45.5t79.5 -16l31 -2v-61l-326 -10v237q-26 -58 -48.5 -90 t-57.5 -63q-102 -86 -221 -86q-72 0 -138 27t-104 73q-34 42 -47 100t-13 174v353q0 113 -30 139q-9 9 -27 13.5t-78 13.5zM463 1151l201 180q61 55 92 72.5t65 17.5t57 -24t23 -58q0 -39 -26 -62.5t-117 -62.5l-262 -114z" />
<glyph unicode="&#xfb;" horiz-adv-x="1200" d="M55 881v61l326 8v-643q0 -68 7 -102t26 -64q20 -31 53 -50t68 -19q57 0 112.5 34t93.5 93q34 53 47 109.5t13 150.5v256q0 70 -9.5 102.5t-34 45.5t-79.5 16l-35 2v61l348 8v-723q0 -70 9.5 -102.5t34 -45.5t79.5 -16l31 -2v-61l-326 -10v237q-26 -58 -48.5 -90 t-57.5 -63q-102 -86 -221 -86q-72 0 -138 27t-104 73q-34 42 -47 100t-13 174v353q0 113 -30 139q-9 9 -27 13.5t-78 13.5zM233 1200l304 184h127l303 -184l-33 -70l-342 136l-328 -136z" />
<glyph unicode="&#xfc;" horiz-adv-x="1200" d="M55 881v61l326 8v-643q0 -68 7 -102t26 -64q20 -31 53 -50t68 -19q57 0 112.5 34t93.5 93q34 53 47 109.5t13 150.5v256q0 70 -9.5 102.5t-34 45.5t-79.5 16l-35 2v61l348 8v-723q0 -70 9.5 -102.5t34 -45.5t79.5 -16l31 -2v-61l-326 -10v237q-26 -58 -48.5 -90 t-57.5 -63q-102 -86 -221 -86q-72 0 -138 27t-104 73q-34 42 -47 100t-13 174v353q0 113 -30 139q-9 9 -27 13.5t-78 13.5zM293 1266q0 49 35.5 84.5t85.5 35.5q53 0 88 -35t35 -87q0 -50 -36 -85.5t-87 -35.5q-50 0 -85.5 36t-35.5 87zM606 1266q0 51 35.5 85.5t85.5 34.5 q52 0 87.5 -34.5t35.5 -85.5t-35.5 -87t-85.5 -36q-51 0 -87 36t-36 87z" />
<glyph unicode="&#xfd;" horiz-adv-x="1062" d="M-6 881v61h493v-61h-38q-56 0 -78.5 -9.5t-22.5 -33.5q0 -13 33 -88l225 -514l193 464q37 92 37 119q0 29 -24.5 43t-82.5 17l-49 2v61h403v-61l-30 -2q-67 -4 -87.5 -23t-56.5 -106l-374 -875q-57 -134 -127 -194t-170 -60q-89 0 -151 53t-62 129q0 54 35.5 91.5 t86.5 37.5q49 0 84 -34t35 -80q0 -77 -86 -101q22 -22 60 -22q147 0 237 233l25 64l-324 758q-34 80 -64.5 105.5t-93.5 25.5h-26zM395 1151l201 180q60 55 92 72.5t66 17.5t57 -24t23 -58q0 -39 -26.5 -62.5t-117.5 -62.5l-262 -114z" />
<glyph unicode="&#xfe;" horiz-adv-x="1181" d="M14 -293l49 2q77 3 100 33t23 131v1266q0 101 -23 131t-100 33l-40 2v61l354 10v-596q40 86 115.5 134.5t169.5 48.5q117 0 217.5 -65.5t159.5 -176.5t59 -240q0 -134 -60.5 -248t-164 -180.5t-224.5 -66.5q-93 0 -157.5 35t-114.5 112v-260q0 -100 24.5 -130.5 t102.5 -33.5l61 -2v-61h-551v61zM377 453q0 -110 17 -180t55 -123q34 -45 82 -70t102 -25q120 0 183 104.5t63 303.5q0 198 -65.5 311t-180.5 113q-66 0 -123.5 -43t-91.5 -117q-41 -93 -41 -274z" />
<glyph unicode="&#xff;" horiz-adv-x="1062" d="M-6 881v61h493v-61h-38q-56 0 -78.5 -9.5t-22.5 -33.5q0 -13 33 -88l225 -514l193 464q37 92 37 119q0 29 -24.5 43t-82.5 17l-49 2v61h403v-61l-30 -2q-67 -4 -87.5 -23t-56.5 -106l-374 -875q-57 -134 -127 -194t-170 -60q-89 0 -151 53t-62 129q0 54 35.5 91.5 t86.5 37.5q49 0 84 -34t35 -80q0 -77 -86 -101q22 -22 60 -22q147 0 237 233l25 64l-324 758q-34 80 -64.5 105.5t-93.5 25.5h-26zM266 1266q0 49 35.5 84.5t85.5 35.5q53 0 88 -35t35 -87q0 -50 -36 -85.5t-87 -35.5q-50 0 -85.5 36t-35.5 87zM580 1266q0 51 35 85.5 t85 34.5q52 0 87.5 -34.5t35.5 -85.5t-35.5 -87t-85.5 -36q-51 0 -86.5 36t-35.5 87z" />
<glyph unicode="&#x152;" horiz-adv-x="1988" d="M86 682q0 139 52.5 268.5t140.5 224t208.5 151t249.5 56.5q54 0 201 -16h926l6 -481l-62 -2q-28 104 -54 164.5t-62 105.5q-38 47 -87 80.5t-105 51.5t-114 18q-78 0 -111.5 -41t-33.5 -136v-368h43q70 0 126.5 24.5t82.5 65.5q28 49 43 149h68l2 -555l-68 -2 q-14 59 -31 99.5t-45.5 75.5t-73 52t-106.5 17h-41v-422q0 -66 3 -90t13 -47q24 -53 105 -53q94 0 187 46.5t153 123.5q89 113 123 276l63 2l-18 -520h-932q-136 -12 -193 -12q-129 0 -251 56.5t-211 150.5t-143 222.5t-54 264.5zM328 684q0 -205 47.5 -346.5t139.5 -213 t226 -71.5q74 0 143.5 21t100.5 53q13 13 22 27.5t14.5 32.5t8 39t2.5 48v813q0 68 -18 106t-64 69q-83 53 -215 53q-209 0 -308 -153.5t-99 -477.5z" />
<glyph unicode="&#x153;" horiz-adv-x="1775" d="M82 461q0 132 64.5 246t173.5 181.5t235 67.5q228 0 360 -182q146 189 363 189q109 0 200.5 -50.5t149.5 -144.5q39 -61 55 -124t17 -165l-664 -2q1 -108 15.5 -173t46.5 -116q81 -129 225 -129q85 0 152.5 41t152.5 142l53 -33q-78 -118 -170.5 -170.5t-220.5 -52.5 q-113 0 -200 43t-175 143q-150 -190 -364 -190q-93 0 -180 39t-150 103.5t-101 153t-38 183.5zM301 465q0 -424 250 -424q256 0 256 424q0 212 -64 322t-186 110q-83 0 -142.5 -46.5t-84.5 -129.5q-29 -96 -29 -256zM1036 547h449q0 170 -55.5 260t-159.5 90 q-106 0 -174 -109q-31 -52 -45 -105.5t-15 -135.5z" />
<glyph unicode="&#x178;" horiz-adv-x="1243" d="M-14 1305v61h587v-61l-51 -2q-65 -3 -90.5 -17t-25.5 -47q0 -42 49 -133l221 -420l205 358q77 138 77 189q0 37 -29 54.5t-95 17.5h-52v61h475v-61h-32q-41 0 -66.5 -7.5t-56.5 -35t-63 -78t-81 -140.5l-243 -454v-324q0 -55 4 -87.5t13 -56.5t29 -35.5t46.5 -17 t71.5 -6.5l57 -2v-61h-651v61l57 2q45 1 71.5 6.5t46.5 17t29 35.5t13 56.5t4 87.5v324l-281 516q-68 125 -103 159t-104 38zM342 1679q0 49 36 85t85 36q53 0 88 -35t35 -88q0 -50 -36 -85.5t-87 -35.5q-50 0 -85.5 36t-35.5 87zM655 1679q0 51 35.5 86t85.5 35 q52 0 87.5 -35t35.5 -86t-35.5 -87t-85.5 -36q-51 0 -87 36t-36 87z" />
<glyph unicode="&#x2c6;" horiz-adv-x="1024" d="M145 1200l304 184h126l304 -184l-33 -70l-342 136l-328 -136z" />
<glyph unicode="&#x2dc;" horiz-adv-x="1024" d="M170 1206q66 88 115.5 121t113.5 33q58 0 123 -33q61 -33 78 -39t43 -6q38 0 73 19t79 63l57 -49q-63 -83 -117.5 -118.5t-120.5 -35.5q-32 0 -56 7t-66 30q-86 45 -121 45q-26 0 -50.5 -12.5t-62.5 -46.5l-35 -29z" />
<glyph unicode="&#x2000;" horiz-adv-x="931" />
<glyph unicode="&#x2001;" horiz-adv-x="1862" />
<glyph unicode="&#x2002;" horiz-adv-x="931" />
<glyph unicode="&#x2003;" horiz-adv-x="1862" />
<glyph unicode="&#x2004;" horiz-adv-x="620" />
<glyph unicode="&#x2005;" horiz-adv-x="465" />
<glyph unicode="&#x2006;" horiz-adv-x="310" />
<glyph unicode="&#x2007;" horiz-adv-x="310" />
<glyph unicode="&#x2008;" horiz-adv-x="232" />
<glyph unicode="&#x2009;" horiz-adv-x="372" />
<glyph unicode="&#x200a;" horiz-adv-x="103" />
<glyph unicode="&#x2010;" horiz-adv-x="477" d="M0 428v115h477v-115h-477z" />
<glyph unicode="&#x2011;" horiz-adv-x="477" d="M0 428v115h477v-115h-477z" />
<glyph unicode="&#x2012;" horiz-adv-x="477" d="M0 428v115h477v-115h-477z" />
<glyph unicode="&#x2013;" d="M154 426v117h798v-117h-798z" />
<glyph unicode="&#x2014;" horiz-adv-x="1316" d="M0 426v117h1317v-117h-1317z" />
<glyph unicode="&#x2018;" horiz-adv-x="532" d="M137 1014q0 91 55 199.5t138 181.5l47 -49q-71 -78 -101 -132.5t-30 -103.5q0 -9 6 -33q8 1 16.5 2t13.5 1.5t9 0.5q43 0 74.5 -33t31.5 -79q0 -49 -35.5 -84t-85.5 -35q-58 0 -98.5 48t-40.5 116z" />
<glyph unicode="&#x2019;" horiz-adv-x="532" d="M137 1276q0 49 35.5 84t85.5 35q58 0 98.5 -48.5t40.5 -117.5q0 -89 -55 -198t-137 -181l-49 49q71 77 102 131t31 103q0 13 -8 34q-20 -4 -37 -4q-44 0 -75.5 33.5t-31.5 79.5z" />
<glyph unicode="&#x201a;" horiz-adv-x="532" d="M137 100q0 51 35 86t86 35q58 0 98.5 -48t40.5 -116q0 -91 -55 -200t-137 -179l-49 48q72 78 102.5 132t30.5 103q0 12 -8 33q-8 -1 -16.5 -2t-13 -1.5t-7.5 -0.5q-44 0 -75.5 32.5t-31.5 77.5z" />
<glyph unicode="&#x201c;" horiz-adv-x="833" d="M137 1018q0 88 53.5 191.5t139.5 185.5l45 -49q-131 -143 -131 -240q0 -11 6 -29q32 4 33 4q47 0 80.5 -32.5t33.5 -79.5q0 -48 -37 -83.5t-88 -35.5q-55 0 -95 49.5t-40 118.5zM438 1014q0 91 55 199.5t138 181.5l47 -49q-71 -78 -101 -132.5t-30 -103.5q0 -14 8 -33 l16 2t13 1.5t8 0.5q44 0 75 -33t31 -79q0 -49 -35 -84t-85 -35q-58 0 -99 48t-41 116z" />
<glyph unicode="&#x201d;" horiz-adv-x="833" d="M137 1276q0 49 35.5 84t85.5 35q58 0 98.5 -48.5t40.5 -117.5q0 -89 -55 -198t-137 -181l-49 49q71 77 102 131t31 103q0 13 -8 34q-20 -4 -37 -4q-44 0 -75.5 33.5t-31.5 79.5zM438 1274q0 49 37 85t88 36q55 0 95 -49.5t40 -118.5q0 -88 -53 -191.5t-139 -185.5l-45 49 q131 143 131 240q0 7 -6 28q-21 -6 -33 -6q-47 0 -81 33t-34 80z" />
<glyph unicode="&#x201e;" horiz-adv-x="833" d="M137 100q0 51 35 86t86 35q58 0 98.5 -48t40.5 -116q0 -91 -55 -200t-137 -179l-49 48q72 78 102.5 132t30.5 103q0 12 -8 33q-8 -1 -16.5 -2t-13 -1.5t-7.5 -0.5q-44 0 -75.5 32.5t-31.5 77.5zM438 102q0 48 37 83.5t88 35.5q55 0 95 -49.5t40 -118.5q0 -88 -53 -192 t-139 -183l-45 48q131 146 131 239q0 11 -6 29q-32 -4 -33 -4q-48 0 -81.5 32.5t-33.5 79.5z" />
<glyph unicode="&#x2022;" horiz-adv-x="1366" d="M401 692q0 120 83.5 202.5t205.5 82.5q114 0 196.5 -83.5t82.5 -199.5q0 -118 -83 -201t-200 -83t-201 82.5t-84 199.5z" />
<glyph unicode="&#x2026;" horiz-adv-x="1568" d="M143 109q0 50 35 85t84 35q51 0 86 -34.5t35 -85.5q0 -49 -35.5 -84t-85.5 -35t-84.5 35t-34.5 84zM666 109q0 50 34.5 85t83.5 35q51 0 86 -34.5t35 -85.5q0 -49 -35.5 -84t-85.5 -35q-49 0 -83.5 34.5t-34.5 84.5zM1188 109q0 50 35 85t84 35q51 0 85.5 -34.5 t34.5 -85.5q0 -49 -35 -84t-85 -35q-49 0 -84 35t-35 84z" />
<glyph unicode="&#x202f;" horiz-adv-x="372" />
<glyph unicode="&#x2039;" horiz-adv-x="452" d="M88 485l191 322h71l-112 -322l112 -321h-71z" />
<glyph unicode="&#x203a;" horiz-adv-x="452" d="M102 164l113 321l-113 322h72l191 -322l-191 -321h-72z" />
<glyph unicode="&#x205f;" horiz-adv-x="465" />
<glyph unicode="&#x20ac;" horiz-adv-x="1462" d="M78 575l31 72h88v72h-119l31 72h94q24 172 115 310.5t228.5 217t293.5 78.5q162 0 325 -94q31 -17 49 -17q12 0 22 8.5t44 46.5q0 3 16 19h54l2 -469l-74 -10q-57 229 -161.5 336.5t-268.5 107.5q-373 0 -408 -534h584l-31 -72h-555v-72h525l-31 -72h-490q8 -98 41 -208 q52 -166 153.5 -246t258.5 -80q115 0 206 53t144 150q50 97 68 278l73 -2q-9 -260 -143.5 -405.5t-365.5 -145.5q-263 0 -447 165.5t-225 440.5h-127z" />
<glyph unicode="&#x2122;" horiz-adv-x="1800" d="M41 1087l8 279h684l4 -279l-51 -2q-20 118 -71 174t-138 56h-20v-572q0 -68 15 -86t73 -18h37v-51h-385v51h36q57 0 71.5 18t14.5 86v572h-14q-92 0 -146.5 -59t-64.5 -171zM782 588v51h29q52 6 67 33.5t15 115.5l2 443q0 55 -14.5 69.5t-67.5 14.5h-29v51h275l182 -543 l186 543h277v-51h-23q-59 0 -73.5 -18t-14.5 -87v-467q0 -68 14 -86t72 -18h25v-51h-352v49q6 1 17 2q24 3 33.5 4.5t22.5 6t16.5 10t8.5 17t5.5 26.5t0.5 40v510l-223 -665h-51l-224 665v-465q0 -88 18.5 -118.5t76.5 -30.5h24v-51h-295z" />
<glyph unicode="&#xe000;" horiz-adv-x="942" d="M0 0v942h942v-942h-942z" />
</font>
</defs>
</svg>
